<svg preserveAspectRatio="none" width="100%" height="100%" overflow="visible" style="display: block;" viewBox="0 0 178.798 24" fill="none" xmlns="http://www.w3.org/2000/svg">
<g id="Frame 1" opacity="0.3">
<g id="Vector">
<path d="M18.4394 23.4977H14.565V20.843H14.0628C13.13 22.4215 11.5157 24 8.21523 24C3.69506 24 0 20.0897 0 14.6367C0 9.18384 3.69506 5.27353 8.21523 5.27353C11.5157 5.27353 13.13 6.88788 14.0628 8.43048H14.565V5.81165H18.4394V23.4977ZM9.25559 20.4843C12.3767 20.4843 14.4932 18.2601 14.4932 14.6367C14.4932 11.0134 12.3767 8.78922 9.25559 8.78922C6.20627 8.78922 3.94618 10.9058 3.94618 14.6367C3.94618 18.3677 6.20627 20.4843 9.25559 20.4843Z" fill="black"/>
<path d="M37.5216 23.4977H33.6472V20.556H33.1449C32.3916 22.2062 30.7413 23.7847 27.3692 23.7847C23.5665 23.7847 20.4813 21.13 20.4813 16.3946V5.81165H24.4275V16.0358C24.4275 18.7982 25.97 20.3408 28.6965 20.3408C31.7817 20.3408 33.5754 18.4036 33.5754 14.9955V5.81165H37.5216V23.4977Z" fill="black"/>
<path d="M38.301 5.81165H43.0006V0H46.9467V5.81165H51.9692V9.21971H46.9467V19.0493C46.9467 19.7668 47.2696 20.0896 47.9154 20.0896H50.9647V23.4977H46.2293C44.3638 23.4977 43.0006 22.1704 43.0006 20.269V9.21971H38.301V5.81165Z" fill="black"/>
<path d="M52.1516 14.6367C52.1516 9.11209 56.1337 5.30941 61.3355 5.30941C66.5372 5.30941 70.5193 9.11209 70.5193 14.6367C70.5193 20.1614 66.5372 24 61.3355 24C56.1337 24 52.1516 20.1614 52.1516 14.6367ZM56.0978 14.6367C56.0978 18.1883 58.2144 20.4484 61.3355 20.4484C64.4565 20.4484 66.5731 18.1883 66.5731 14.6367C66.5731 11.0852 64.4565 8.86097 61.3355 8.86097C58.2144 8.86097 56.0978 11.0852 56.0978 14.6367Z" fill="black"/>
<path d="M95.1749 5.81165H99.0493V8.71747H99.5516C100.341 7.06725 101.955 5.52466 105.327 5.52466C109.166 5.52466 112.215 8.14349 112.215 12.8789V23.4977H108.269V13.2376C108.269 10.4753 106.726 8.9686 104 8.9686C100.915 8.9686 99.1211 10.9058 99.1211 14.3139V23.4977H95.1749V5.81165Z" fill="black"/>
<path d="M113.604 14.6367C113.604 9.11209 117.587 5.30941 122.788 5.30941C127.99 5.30941 131.972 9.11209 131.972 14.6367C131.972 20.1614 127.99 24 122.788 24C117.587 24 113.604 20.1614 113.604 14.6367ZM117.551 14.6367C117.551 18.1883 119.667 20.4484 122.788 20.4484C125.909 20.4484 128.026 18.1883 128.026 14.6367C128.026 11.0852 125.909 8.86097 122.788 8.86097C119.667 8.86097 117.551 11.0852 117.551 14.6367Z" fill="black"/>
<path d="M133.593 5.81165H137.467V8.28698H137.969C138.794 6.67264 140.337 5.52466 142.741 5.52466C145.144 5.52466 146.723 6.78026 147.548 8.50223H148.05C148.803 6.92376 150.274 5.52466 153.108 5.52466C156.301 5.52466 159.028 7.85649 159.028 11.5157V23.4977H155.081V11.8027C155.081 9.97308 153.718 8.93272 151.817 8.93272C149.808 8.93272 148.301 10.1525 148.301 12.5919V23.4977H144.355V11.8027C144.355 9.97308 143.064 8.93272 141.162 8.93272C139.117 8.93272 137.539 10.1525 137.539 12.5919V23.4977H133.593V5.81165Z" fill="black"/>
<path d="M160.43 14.6367C160.43 9.11209 164.412 5.30941 169.614 5.30941C174.816 5.30941 178.798 9.11209 178.798 14.6367C178.798 20.1614 174.816 24 169.614 24C164.412 24 160.43 20.1614 160.43 14.6367ZM164.377 14.6367C164.377 18.1883 166.493 20.4484 169.614 20.4484C172.735 20.4484 174.852 18.1883 174.852 14.6367C174.852 11.0852 172.735 8.86097 169.614 8.86097C166.493 8.86097 164.377 11.0852 164.377 14.6367Z" fill="black"/>
</g>
<path id="Vector_2" d="M79.2083 5.30942L89.8751 5.30942L91.8989 7.33324L91.9227 18.0238H88.4941L88.4703 12.5237L88.7084 11.2856L88.4227 11.1428L87.5893 12.119L80.0179 19.6905L79.0417 20.5238L79.1845 20.8095L80.4226 20.5714H85.9465V24H75.2321L73.2083 21.9762L73.2321 11.2856H76.6607L76.6369 16.7857L76.4226 18.0476L76.7083 18.1904L77.5179 17.1904L85.0893 9.61897L86.0893 8.80944L85.9465 8.52372L84.6846 8.73801L79.2083 8.73801V5.30942Z" fill="var(--fill-0, black)"/>
</g>
</svg>
