<svg preserveAspectRatio="none" width="100%" height="100%" overflow="visible" style="display: block;" viewBox="0 0 78.0001 81.4946" fill="none" xmlns="http://www.w3.org/2000/svg">
<g id="span">
<g id="Vector">
<path d="M4.90342 3.51576L49.9959 0.185146C55.5349 -0.289958 56.9578 0.0303093 60.4408 2.56229L74.8349 12.7024C77.2088 14.4464 77.9992 14.9215 77.9992 16.8203V72.4334C77.9992 75.9189 76.7337 77.9807 72.3029 78.2952L19.9389 81.4669C16.6139 81.6242 15.0305 81.1491 13.289 78.93L2.68926 65.1464C0.788036 62.6095 0 60.7107 0 58.4908V9.05727C0 6.20747 1.26558 3.83114 4.90342 3.51576Z" fill="white"/>
<path fill-rule="evenodd" clip-rule="evenodd" d="M49.9959 0.185961L4.90342 3.51576C1.26558 3.83114 0 6.20747 0 9.05727V58.4908C0 60.7099 0.788036 62.6087 2.68926 65.1464L13.289 78.93C15.0305 81.1491 16.6139 81.625 19.9389 81.4669L72.3037 78.296C76.7312 77.9807 78.0001 75.9189 78.0001 72.4343V16.8211C78.0001 15.0201 77.2886 14.501 75.1943 12.964L60.4408 2.56229C56.9586 0.0303093 55.5349 -0.289958 49.9959 0.185146V0.185961ZM21.1229 15.9108C16.847 16.1985 15.8773 16.2637 13.4488 14.2891L7.27487 9.37835C6.64737 8.74271 6.96275 7.94978 8.54371 7.79169L51.8922 4.62406C55.5325 4.30624 57.428 5.57508 58.8517 6.68339L66.2863 12.0701C66.6041 12.2306 67.3946 13.1784 66.4436 13.1784L21.6771 15.8733L21.1229 15.9108ZM16.138 71.9592V24.7479C16.138 22.6861 16.7712 21.7351 18.6668 21.5754L70.0838 18.565C71.8278 18.4078 72.6158 19.5161 72.6158 21.5746V68.4713C72.6158 70.533 72.298 72.277 69.4515 72.4343L20.2485 75.2865C17.402 75.4438 16.1388 74.496 16.1388 71.9592H16.138ZM64.7078 27.2791C65.0231 28.7052 64.7078 30.1313 63.2816 30.2943L60.9102 30.7645V65.6215C58.8509 66.7298 56.9553 67.363 55.3711 67.363C52.8391 67.363 52.2068 66.57 50.3104 64.1953L34.8023 39.7964V63.4024L39.7082 64.5132C39.7082 64.5132 39.7082 67.3654 35.7501 67.3654L24.8382 67.9986C24.5204 67.363 24.8382 65.7796 25.9441 65.4642L28.7939 64.6737V33.4619L24.839 33.1417C24.5212 31.7155 25.3117 29.6562 27.5283 29.4965L39.2364 28.7085L55.3719 53.4228V31.5583L51.259 31.0856C50.9412 29.3392 52.2068 28.0704 53.7877 27.9155L64.7078 27.2791Z" fill="var(--fill-0, black)"/>
</g>
</g>
</svg>
