<svg preserveAspectRatio="none" width="100%" height="100%" overflow="visible" style="display: block;" viewBox="0 0 82 82" fill="none" xmlns="http://www.w3.org/2000/svg">
<g id="span">
<g id="Vector">
<path d="M3.05176e-05 28.7C3.05176e-05 18.6541 3.05176e-05 13.6311 1.9551 9.79405C3.67483 6.41889 6.41892 3.6748 9.79408 1.95507C13.6311 0 18.6541 0 28.7 0H53.3C63.346 0 68.3689 0 72.206 1.95507C75.5811 3.6748 78.3252 6.41889 80.045 9.79405C82 13.6311 82 18.6541 82 28.7V53.3C82 63.3459 82 68.3689 80.045 72.206C78.3252 75.5811 75.5811 78.3252 72.206 80.0449C68.3689 82 63.346 82 53.3 82H28.7C18.6541 82 13.6311 82 9.79408 80.0449C6.41892 78.3252 3.67483 75.5811 1.9551 72.206C3.05176e-05 68.3689 3.05176e-05 63.3459 3.05176e-05 53.3V28.7Z" fill="#5A3FFF"/>
<path d="M31.5765 14.7344L61.518 14.7344L67.1988 20.4225L67.2657 50.469H57.6416L57.5748 35.0108L58.2431 31.531L57.4411 31.1295L55.1019 33.8732L33.8488 55.1533L31.1086 57.4955L31.5096 58.2985L34.985 57.6293H50.4904V67.2656H20.4153L14.7344 61.5775L14.8012 31.531H24.4253L24.3584 46.9892L23.7569 50.5359L24.559 50.9374L26.8313 48.1269L48.0844 26.8467L50.8914 24.5714L50.4904 23.7684L46.9482 24.3707L31.5765 24.3707V14.7344Z" fill="var(--fill-0, white)"/>
</g>
</g>
</svg>
