<svg preserveAspectRatio="none" width="100%" height="100%" overflow="visible" style="display: block;" viewBox="0 0 22 22" fill="none" xmlns="http://www.w3.org/2000/svg">
<g id="Group">
<path id="Vector" d="M16.7895 5.21048L11.579 4.63155L5.21059 5.21048L4.63155 11L5.21048 16.7895L11 17.5132L16.7895 16.7895L17.3685 10.8553L16.7895 5.21048Z" fill="var(--fill-0, white)"/>
<path id="Vector_2" d="M7.58571 14.1929C7.15297 13.9005 6.85333 13.4736 6.68976 12.9091L7.69428 12.4951C7.78547 12.8425 7.94464 13.1117 8.1719 13.3027C8.39773 13.4938 8.67273 13.5879 8.99404 13.5879C9.32261 13.5879 9.60487 13.488 9.84071 13.2882C10.0766 13.0885 10.1953 12.8337 10.1953 12.5255C10.1953 12.21 10.0708 11.9523 9.8219 11.7526C9.57297 11.553 9.26035 11.453 8.8869 11.453H8.30654V10.4587H8.8275C9.14881 10.4587 9.41952 10.3719 9.63952 10.1982C9.85952 10.0245 9.96952 9.78714 9.96952 9.48464C9.96952 9.21547 9.87107 9.00119 9.67428 8.84059C9.47749 8.67999 9.22845 8.59892 8.92595 8.59892C8.63071 8.59892 8.39619 8.67713 8.2225 8.83487C8.04881 8.99261 7.92286 9.18654 7.84333 9.41523L6.84904 9.0013C6.98071 8.62785 7.22249 8.29785 7.57702 8.01273C7.93166 7.72761 8.38464 7.58428 8.93464 7.58428C9.34131 7.58428 9.7075 7.66249 10.0318 7.82023C10.356 7.97797 10.6107 8.19654 10.7945 8.4744C10.9783 8.75369 11.0695 9.06642 11.0695 9.41369C11.0695 9.76833 10.9842 10.0679 10.8133 10.3139C10.6425 10.56 10.4326 10.7481 10.1837 10.8799V10.9392C10.5123 11.0767 10.78 11.2866 10.9913 11.5688C11.2012 11.8511 11.3068 12.1883 11.3068 12.582C11.3068 12.9757 11.2069 13.3274 11.0072 13.6357C10.8074 13.944 10.531 14.1871 10.1807 14.3637C9.82905 14.5402 9.43393 14.63 8.99536 14.63C8.48738 14.6314 8.01845 14.4852 7.58571 14.1929Z" fill="var(--fill-0, #1A73E8)"/>
<path id="Vector_3" d="M13.75 9.20821L12.6529 10.0057L12.1014 9.16916L14.08 7.74202H14.8384V14.4737H13.75V9.20821Z" fill="var(--fill-0, #1A73E8)"/>
<path id="Vector_4" d="M16.7895 22L22 16.7895L19.3948 15.6317L16.7895 16.7895L15.6317 19.3948L16.7895 22Z" fill="var(--fill-0, #EA4335)"/>
<path id="Vector_5" d="M4.05262 19.3948L5.21048 22H16.7894V16.7895H5.21048L4.05262 19.3948Z" fill="var(--fill-0, #34A853)"/>
<path id="Vector_6" d="M1.73679 0C0.77726 0 0 0.77726 0 1.73679V16.7894L2.60524 17.9473L5.21048 16.7894V5.21048H16.7894L17.9473 2.60524L16.7895 0H1.73679Z" fill="var(--fill-0, #4285F4)"/>
<path id="Vector_7" d="M0 16.7895V20.2632C0 21.2228 0.77726 22 1.73679 22H5.21048V16.7895H0Z" fill="var(--fill-0, #188038)"/>
<path id="Vector_8" d="M16.7895 5.21048V16.7894H22V5.21048L19.3948 4.05262L16.7895 5.21048Z" fill="var(--fill-0, #FBBC04)"/>
<path id="Vector_9" d="M22 5.21048V1.73679C22 0.77715 21.2227 0 20.2632 0H16.7895V5.21048H22Z" fill="var(--fill-0, #1967D2)"/>
</g>
</svg>
