<svg preserveAspectRatio="none" width="100%" height="100%" overflow="visible" style="display: block;" viewBox="0 0 32 32" fill="none" xmlns="http://www.w3.org/2000/svg">
<g id="notion">
<rect id="Rectangle 2" width="32" height="32" rx="7" fill="var(--fill-0, #E91724)"/>
<path id="Vector" d="M24.915 18.2713C24.315 17.6213 23.165 17.3213 21.515 17.3213C20.615 17.3213 19.665 17.4213 18.765 17.5713C18.165 17.0213 17.665 16.3713 17.165 15.7213C16.815 15.2213 16.465 14.7213 16.165 14.1713C16.665 12.7713 16.965 11.2713 17.065 9.77127C17.065 8.42127 16.515 6.97127 15.015 6.97127C14.515 6.97127 14.015 7.27127 13.765 7.72127C13.115 8.82127 13.365 11.0713 14.415 13.4213C14.065 14.4713 13.665 15.5213 13.215 16.6713C12.815 17.6713 12.365 18.6213 11.815 19.5213C10.265 20.1213 7.01501 21.6213 6.71501 23.2713C6.61501 23.7713 6.76501 24.2713 7.16501 24.5713C7.51501 24.8713 8.015 25.0713 8.515 25.0213C10.465 25.0213 12.415 22.3213 13.765 19.9713C14.515 19.7213 15.265 19.4713 16.065 19.2713C16.915 19.0713 17.715 18.8713 18.465 18.7213C20.565 20.5213 22.415 20.8213 23.315 20.8213C24.565 20.8213 25.065 20.2713 25.215 19.8213C25.415 19.2713 25.315 18.6713 24.915 18.2713ZM23.565 19.2213C23.515 19.5713 23.115 19.8213 22.615 19.8213C22.465 19.8213 22.315 19.8213 22.165 19.7713C21.165 19.5213 20.215 19.0213 19.415 18.3713C20.065 18.2713 20.765 18.2213 21.415 18.2213C21.865 18.2213 22.315 18.2713 22.765 18.3213C23.215 18.4213 23.715 18.6213 23.565 19.2213ZM14.615 8.17127C14.715 8.02127 14.865 7.92127 15.065 7.87127C15.565 7.87127 15.665 8.42127 15.665 8.92127C15.615 10.0713 15.415 11.1713 15.065 12.2713C14.215 10.1213 14.315 8.67127 14.615 8.17127ZM17.415 17.7713C16.865 17.8713 16.315 18.0213 15.765 18.1713C15.365 18.2713 14.965 18.4213 14.515 18.5213C14.715 18.0713 14.915 17.6213 15.115 17.2213C15.365 16.6713 15.565 16.1213 15.765 15.5713C15.965 15.8713 16.115 16.1213 16.315 16.3713C16.665 16.8713 17.065 17.3213 17.415 17.7713ZM11.365 20.6713C10.115 22.6713 8.865 23.9713 8.165 23.9713C8.065 23.9713 7.91501 23.9213 7.86501 23.8713C7.71501 23.7713 7.66501 23.5713 7.71501 23.4213C7.81501 22.6713 9.26501 21.6213 11.365 20.6713Z" fill="var(--fill-0, white)"/>
</g>
</svg>
