<svg preserveAspectRatio="none" width="100%" height="100%" overflow="visible" style="display: block;" viewBox="0 0 22 18.4188" fill="none" xmlns="http://www.w3.org/2000/svg">
<g id="Frame" clip-path="url(#clip0_0_79)">
<path id="Vector" d="M9.70046 0.229439L1.60119 3.58076C1.1508 3.76716 1.15546 4.40702 1.60868 4.58667L9.74172 7.81189C10.4563 8.09529 11.2521 8.09529 11.9667 7.81189L20.0999 4.58654C20.553 4.40702 20.5579 3.76728 20.1072 3.58089L12.0082 0.229316C11.2693 -0.0764388 10.4392 -0.0764388 9.70034 0.229316" fill="var(--fill-0, #FCB400)"/>
<path id="Vector_2" d="M11.5758 9.57295V17.6301C11.5758 18.0132 11.9623 18.2757 12.3185 18.1345L21.3812 14.6168C21.4823 14.5768 21.569 14.5072 21.63 14.4173C21.6911 14.3274 21.7238 14.2211 21.7238 14.1124V6.05537C21.7238 5.67214 21.3373 5.40973 20.9811 5.55094L11.9184 9.06865C11.8174 9.10874 11.7307 9.17826 11.6696 9.2682C11.6085 9.35814 11.5759 9.46423 11.5758 9.57295Z" fill="var(--fill-0, #18BFFF)"/>
<path id="Vector_3" d="M9.45955 9.98872L6.76994 11.2874L6.49686 11.4194L0.81926 14.1398C0.459484 14.3134 9.33159e-07 14.0511 9.33159e-07 13.6513V6.08913C9.33159e-07 5.94449 0.0741665 5.81961 0.173627 5.72567C0.21443 5.68504 0.260721 5.65032 0.311153 5.62253C0.446713 5.54112 0.640232 5.51939 0.804771 5.58446L9.41436 8.99584C9.85199 9.16946 9.88637 9.78256 9.45955 9.98872Z" fill="var(--fill-0, #F82B60)"/>
<path id="Vector_4" d="M9.45955 9.98872L6.76994 11.2874L0.173627 5.72555C0.214438 5.68496 0.260729 5.65029 0.311153 5.62253C0.446713 5.54112 0.640232 5.51939 0.804771 5.58446L9.41436 8.99584C9.85199 9.16946 9.88637 9.78256 9.45955 9.98872Z" fill="var(--fill-0, black)" fill-opacity="0.25"/>
</g>
<defs>
<clipPath id="clip0_0_79">
<rect width="22" height="18.4188" fill="white"/>
</clipPath>
</defs>
</svg>
