<svg preserveAspectRatio="none" width="100%" height="100%" overflow="visible" style="display: block;" viewBox="0 0 32 32" fill="none" xmlns="http://www.w3.org/2000/svg">
<g id="notion">
<rect id="Rectangle 2" x="0.5" y="0.5" width="31" height="31" rx="6.5" fill="var(--fill-0, white)" stroke="var(--stroke-0, #E2E3E6)"/>
<path id="Vector" fill-rule="evenodd" clip-rule="evenodd" d="M22.2154 16.598C19.5729 16.598 17.4309 18.7402 17.4309 21.3828C17.4309 24.0253 19.5729 26.1675 22.2154 26.1675C24.8579 26.1675 27 24.0253 27 21.3828C27 18.7402 24.8579 16.598 22.2154 16.598ZM9.7846 16.5984C7.14216 16.5984 5 18.7402 5 21.3828C5 24.0253 7.14216 26.1675 9.7846 26.1675C12.4272 26.1675 14.5694 24.0253 14.5694 21.3828C14.5694 18.7402 12.4272 16.5984 9.7846 16.5984ZM20.7845 10.6171C20.7845 13.2598 18.6424 15.4022 16.0001 15.4022C13.3575 15.4022 11.2154 13.2598 11.2154 10.6171C11.2154 7.975 13.3575 5.83263 16.0001 5.83263C18.6424 5.83263 20.7845 7.975 20.7845 10.6171Z" fill="var(--fill-0, #F06A6A)"/>
</g>
</svg>
