<svg preserveAspectRatio="none" width="100%" height="100%" overflow="visible" style="display: block;" viewBox="0 0 24 24" fill="none" xmlns="http://www.w3.org/2000/svg">
<g id="Group">
<path id="Vector" d="M14.9999 12.0053C14.9995 12.897 14.8363 13.7503 14.5391 14.5388C13.7511 14.8359 12.897 14.9992 12.0049 15.0003H11.9947C11.1033 14.9992 10.2493 14.8363 9.46124 14.5391C9.16412 13.7511 9.00047 12.897 9.00009 12.0053V11.9947C9.00047 11.1033 9.16374 10.2493 9.46049 9.46162C10.2485 9.16412 11.103 9.00047 11.9947 9.00009H12.0049C12.897 9.00047 13.7511 9.16412 14.5391 9.46162C14.8363 10.2493 14.9995 11.1033 14.9999 11.9947V12.0053ZM23.8333 10.0001H16.8287L21.7814 5.04698C21.3922 4.50024 20.9582 3.98743 20.485 3.51422V3.51384C20.0118 3.04101 19.499 2.60776 18.9526 2.21863L13.9996 7.17172V0.167038C13.3514 0.0580676 12.6855 0.000377062 12.006 0H11.9936C11.3141 0.000377062 10.6486 0.0580676 10.0001 0.167038V7.17172L5.04698 2.21863C4.50024 2.60776 3.98781 3.04138 3.51535 3.5146L3.51271 3.51648C3.04025 3.98894 2.60738 4.50099 2.21826 5.04698L7.17172 10.0001H0.167038C0.167038 10.0001 0 11.3156 0 11.9959V12.0041C0 12.6844 0.0576905 13.351 0.167038 13.9999H7.17172L2.21826 18.953C2.99727 20.0461 3.95387 21.0031 5.04698 21.7817L10.0001 16.8283V23.8333C10.6482 23.9419 11.313 23.9992 11.9913 24H12.0083C12.687 23.9992 13.3525 23.9419 13.9996 23.8333V16.8283L18.953 21.7817C19.4994 21.3926 20.0118 20.959 20.485 20.4862L20.4862 20.485C20.9586 20.0118 21.3926 19.499 21.7814 18.953L16.8279 13.9999H23.8333C23.9423 13.3521 23.9992 12.6874 24 12.0087V11.9913C23.9992 11.3126 23.9423 10.6479 23.8333 10.0001Z" fill="var(--fill-0, white)"/>
</g>
</svg>
