<svg preserveAspectRatio="none" width="100%" height="100%" overflow="visible" style="display: block;" viewBox="0 0 32 32" fill="none" xmlns="http://www.w3.org/2000/svg">
<g id="notion">
<g id="Rectangle 2">
<rect width="32" height="32" rx="7" fill="url(#paint0_radial_0_19)"/>
<rect width="32" height="32" rx="7" fill="url(#paint1_radial_0_19)"/>
</g>
<path id="Vector" d="M16.001 5.00009C13.0136 5.00009 12.6387 5.01315 11.4654 5.06655C10.2943 5.12017 9.49499 5.30557 8.79557 5.57759C8.07209 5.85855 7.45839 6.23438 6.84697 6.84603C6.23509 7.45744 5.85926 8.07115 5.57739 8.7944C5.30468 9.49405 5.11905 10.2936 5.06634 11.4642C5.01387 12.6375 5.00012 13.0127 5.00012 16.0001C5.00012 18.9875 5.01341 19.3613 5.06657 20.5346C5.12043 21.7057 5.30582 22.505 5.57762 23.2044C5.8588 23.9279 6.23464 24.5416 6.84628 25.153C7.45747 25.7649 8.07118 26.1416 8.7942 26.4226C9.49407 26.6946 10.2936 26.88 11.4644 26.9336C12.6378 26.987 13.0125 27.0001 15.9997 27.0001C18.9873 27.0001 19.3611 26.987 20.5344 26.9336C21.7054 26.88 22.5057 26.6946 23.2056 26.4226C23.9288 26.1416 24.5416 25.7649 25.1528 25.153C25.7647 24.5416 26.1405 23.9279 26.4224 23.2046C26.6928 22.505 26.8784 21.7054 26.9334 20.5348C26.9861 19.3615 26.9999 18.9875 26.9999 16.0001C26.9999 13.0127 26.9861 12.6378 26.9334 11.4644C26.8784 10.2934 26.6928 9.49405 26.4224 8.79463C26.1405 8.07115 25.7647 7.45744 25.1528 6.84603C24.5409 6.23415 23.9291 5.85832 23.2049 5.57759C22.5036 5.30557 21.7038 5.12017 20.5328 5.06655C19.3595 5.01315 18.9859 5.00009 15.9976 5.00009H16.001ZM15.0142 6.98238C15.3071 6.98192 15.6339 6.98238 16.001 6.98238C18.938 6.98238 19.2861 6.99292 20.4459 7.04563C21.5184 7.09467 22.1005 7.27388 22.4883 7.42444C23.0016 7.62382 23.3676 7.86215 23.7524 8.24715C24.1374 8.63215 24.3757 8.99882 24.5755 9.51215C24.7261 9.89944 24.9055 10.4815 24.9543 11.554C25.0071 12.7136 25.0185 13.0619 25.0185 15.9976C25.0185 18.9332 25.0071 19.2815 24.9543 20.4411C24.9053 21.5136 24.7261 22.0957 24.5755 22.483C24.3762 22.9963 24.1374 23.3618 23.7524 23.7466C23.3674 24.1316 23.0018 24.3699 22.4883 24.5693C22.101 24.7206 21.5184 24.8993 20.4459 24.9484C19.2864 25.0011 18.938 25.0125 16.001 25.0125C13.0638 25.0125 12.7157 25.0011 11.5561 24.9484C10.4836 24.8989 9.90153 24.7197 9.51355 24.5691C9.00022 24.3697 8.63355 24.1314 8.24855 23.7464C7.86355 23.3614 7.62522 22.9956 7.42539 22.4821C7.27482 22.0948 7.09539 21.5127 7.04657 20.4402C6.99387 19.2806 6.98332 18.9323 6.98332 15.9948C6.98332 13.0574 6.99387 12.7109 7.04657 11.5513C7.09562 10.4788 7.27482 9.89669 7.42539 9.50894C7.62476 8.99561 7.86355 8.62894 8.24855 8.24394C8.63355 7.85894 9.00022 7.62061 9.51355 7.42078C9.9013 7.26953 10.4836 7.09078 11.5561 7.04151C12.5709 6.99567 12.9641 6.98192 15.0142 6.97963V6.98238ZM21.8727 8.80884C21.144 8.80884 20.5527 9.3994 20.5527 10.1284C20.5527 10.8571 21.144 11.4484 21.8727 11.4484C22.6015 11.4484 23.1927 10.8571 23.1927 10.1284C23.1927 9.39963 22.6015 8.80838 21.8727 8.80838V8.80884ZM16.001 10.3511C12.8814 10.3511 10.3521 12.8804 10.3521 16.0001C10.3521 19.1197 12.8814 21.6479 16.001 21.6479C19.1207 21.6479 21.6491 19.1197 21.6491 16.0001C21.6491 12.8804 19.1207 10.3511 16.001 10.3511ZM16.001 12.3334C18.0259 12.3334 19.6677 13.9749 19.6677 16.0001C19.6677 18.025 18.0259 19.6668 16.001 19.6668C13.9759 19.6668 12.3344 18.025 12.3344 16.0001C12.3344 13.9749 13.9759 12.3334 16.001 12.3334Z" fill="var(--fill-0, white)"/>
</g>
<defs>
<radialGradient id="paint0_radial_0_19" cx="0" cy="0" r="1" gradientUnits="userSpaceOnUse" gradientTransform="translate(8.50004 34.4647) rotate(-90) scale(31.7144 29.4969)">
<stop stop-color="#FFDD55"/>
<stop offset="0.1" stop-color="#FFDD55"/>
<stop offset="0.5" stop-color="#FF543E"/>
<stop offset="1" stop-color="#C837AB"/>
</radialGradient>
<radialGradient id="paint1_radial_0_19" cx="0" cy="0" r="1" gradientTransform="matrix(2.78252 13.9007 -57.298 11.4759 -5.36017 2.30523)" gradientUnits="userSpaceOnUse">
<stop stop-color="#3771C8"/>
<stop offset="0.128" stop-color="#3771C8"/>
<stop offset="1" stop-color="#6600FF" stop-opacity="0"/>
</radialGradient>
</defs>
</svg>
