<svg preserveAspectRatio="none" width="100%" height="100%" overflow="visible" style="display: block;" viewBox="0 0 32 32" fill="none" xmlns="http://www.w3.org/2000/svg">
<g id="notion">
<rect id="Rectangle 2" width="32" height="32" rx="7" fill="var(--fill-0, #03A9F4)"/>
<g id="Vector">
<path fill-rule="evenodd" clip-rule="evenodd" d="M19.2333 12.5616L24.2845 7.50731L25.7304 8.95304L20.6791 14.0075L19.2333 12.5616ZM17.1865 17.7269C16.198 17.7269 15.3971 16.9225 15.3971 15.9293C15.3971 14.937 16.198 14.1316 17.1865 14.1316C18.1751 14.1316 18.9759 14.937 18.9759 15.9293C18.9759 16.9225 18.1751 17.7269 17.1865 17.7269ZM25.7539 22.9476L24.3081 24.3944L19.2569 19.3399L20.7028 17.8931L25.7539 22.9476Z" fill="#222222"/>
<path fill-rule="evenodd" clip-rule="evenodd" d="M17.2386 23.7032C18.2568 23.7032 19.2269 23.5 20.116 23.1388L22.5831 25.6087C21.0009 26.492 19.1797 27 17.2386 27C11.1682 27 6.24609 22.0748 6.24609 16.0005C6.24609 9.92516 11.1682 5 17.2386 5C19.1603 5 20.965 5.4956 22.5359 6.36262L20.1098 8.7913C19.2218 8.43217 18.2548 8.22902 17.2386 8.22902C12.9873 8.22902 9.54077 11.6931 9.54077 15.9667C9.54077 20.2391 12.9872 23.7032 17.2386 23.7032Z" fill="var(--fill-0, white)"/>
</g>
</g>
</svg>
