<svg preserveAspectRatio="none" width="100%" height="100%" overflow="visible" style="display: block;" viewBox="0 0 32 32.375" fill="none" xmlns="http://www.w3.org/2000/svg">
<g id="notion">
<rect id="Rectangle 2" width="32" height="32" rx="7" fill="var(--fill-0, #EA4B71)"/>
<path id="Vector" fill-rule="evenodd" clip-rule="evenodd" d="M28 12.6827C28 14.0422 26.898 15.1442 25.5385 15.1442C24.3915 15.1442 23.4278 14.3598 23.1545 13.2981H19.7178C19.1162 13.2981 18.6027 13.7331 18.5038 14.3265L18.4026 14.9335C18.3066 15.5099 18.015 16.0115 17.6027 16.375C18.015 16.7385 18.3066 17.2401 18.4026 17.8165L18.5038 18.4235C18.6027 19.0169 19.1162 19.4519 19.7178 19.4519H20.693C20.9662 18.3902 21.93 17.6058 23.077 17.6058C24.4364 17.6058 25.5385 18.7078 25.5385 20.0673C25.5385 21.4268 24.4364 22.5288 23.077 22.5288C21.93 22.5288 20.9662 21.7444 20.693 20.6827H19.7178C18.5145 20.6827 17.4876 19.8128 17.2898 18.6258L17.1886 18.0188C17.0897 17.4254 16.5762 16.9904 15.9746 16.9904H14.9706C14.6634 17.9996 13.7251 18.734 12.6154 18.734C11.5057 18.734 10.5675 17.9996 10.2602 16.9904H8.81676C8.5095 17.9996 7.57129 18.734 6.46157 18.734C5.1021 18.734 4.00003 17.6319 4.00003 16.2724C4.00003 14.913 5.1021 13.8109 6.46157 13.8109C7.6452 13.8109 8.63369 14.6463 8.86963 15.7596H10.2074C10.4433 14.6463 11.4318 13.8109 12.6154 13.8109C13.799 13.8109 14.7875 14.6463 15.0235 15.7596H15.9746C16.5762 15.7596 17.0897 15.3246 17.1886 14.7312L17.2898 14.1242C17.4876 12.9372 18.5145 12.0673 19.7178 12.0673H23.1545C23.4278 11.0056 24.3915 10.2212 25.5385 10.2212C26.898 10.2212 28 11.3232 28 12.6827ZM26.7693 12.6827C26.7693 13.3624 26.2182 13.9135 25.5385 13.9135C24.8588 13.9135 24.3077 13.3624 24.3077 12.6827C24.3077 12.003 24.8588 11.4519 25.5385 11.4519C26.2182 11.4519 26.7693 12.003 26.7693 12.6827ZM6.46157 17.5032C7.14132 17.5032 7.69233 16.9522 7.69233 16.2724C7.69233 15.5927 7.14132 15.0417 6.46157 15.0417C5.78184 15.0417 5.2308 15.5927 5.2308 16.2724C5.2308 16.9522 5.78184 17.5032 6.46157 17.5032ZM12.6154 17.5032C13.2952 17.5032 13.8462 16.9522 13.8462 16.2724C13.8462 15.5927 13.2952 15.0417 12.6154 15.0417C11.9357 15.0417 11.3846 15.5927 11.3846 16.2724C11.3846 16.9522 11.9357 17.5032 12.6154 17.5032ZM23.077 21.2981C23.7567 21.2981 24.3077 20.747 24.3077 20.0673C24.3077 19.3876 23.7567 18.8365 23.077 18.8365C22.3972 18.8365 21.8462 19.3876 21.8462 20.0673C21.8462 20.747 22.3972 21.2981 23.077 21.2981Z" fill="var(--fill-0, white)"/>
</g>
</svg>
