<svg preserveAspectRatio="none" width="100%" height="100%" overflow="visible" style="display: block;" viewBox="0 0 22 20.4651" fill="none" xmlns="http://www.w3.org/2000/svg">
<g id="Livello_1" clip-path="url(#clip0_0_51)">
<path id="Vector" d="M13.814 9.72093L5.11628 8.18605V19.5273C5.11628 20.0452 5.53615 20.4651 6.05409 20.4651H21.0622C21.5801 20.4651 22 20.0452 22 19.5273V15.3488L13.814 9.72093Z" fill="var(--fill-0, #185C37)"/>
<path id="Vector_2" d="M13.814 0H6.05409C5.53615 0 5.11628 0.419871 5.11628 0.937811V5.11628L13.814 10.2326L18.4186 11.7674L22 10.2326V5.11628L13.814 0Z" fill="var(--fill-0, #21A366)"/>
<path id="Vector_3" d="M5.11628 5.11628H13.814V10.2326H5.11628V5.11628Z" fill="var(--fill-0, #107C41)"/>
<path id="Vector_4" opacity="0.1" d="M11.3413 4.09302H5.11628V16.8837H11.3413C11.8585 16.882 12.2774 16.4631 12.2791 15.9459V5.03083C12.2774 4.5136 11.8585 4.0947 11.3413 4.09302Z" fill="var(--fill-0, black)"/>
<path id="Vector_5" opacity="0.2" d="M10.8296 4.60465H5.11628V17.3953H10.8296C11.3469 17.3937 11.7658 16.9748 11.7674 16.4575V5.54246C11.7658 5.02522 11.3469 4.60633 10.8296 4.60465Z" fill="var(--fill-0, black)"/>
<path id="Vector_6" opacity="0.2" d="M10.8296 4.60465H5.11628V16.3721H10.8296C11.3469 16.3704 11.7658 15.9515 11.7674 15.4343V5.54246C11.7658 5.02522 11.3469 4.60633 10.8296 4.60465Z" fill="var(--fill-0, black)"/>
<path id="Vector_7" opacity="0.2" d="M10.318 4.60465H5.11628V16.3721H10.318C10.8352 16.3704 11.2541 15.9515 11.2558 15.4343V5.54246C11.2541 5.02522 10.8352 4.60633 10.318 4.60465Z" fill="var(--fill-0, black)"/>
<path id="Vector_8" d="M0.937811 4.60465H10.318C10.8359 4.60465 11.2558 5.02452 11.2558 5.54246V14.9226C11.2558 15.4406 10.8359 15.8605 10.318 15.8605H0.937811C0.419871 15.8605 0 15.4406 0 14.9227V5.54246C0 5.02452 0.419871 4.60465 0.937811 4.60465Z" fill="url(#paint0_linear_0_51)"/>
<path id="Vector_9" d="M2.90451 13.2808L4.87735 10.2239L3.06977 7.18376H4.52381L5.51023 9.12795C5.6013 9.31265 5.66372 9.44976 5.69749 9.54032H5.71028C5.77508 9.39297 5.8433 9.24989 5.91493 9.11106L6.96939 7.18479H8.30422L6.45059 10.207L8.3513 13.2808H6.93103L5.79163 11.1468C5.73796 11.056 5.69241 10.9607 5.65554 10.8619H5.63866C5.60528 10.9587 5.561 11.0514 5.50665 11.1381L4.33349 13.2808H2.90451Z" fill="var(--fill-0, white)"/>
<path id="Vector_10" d="M21.0622 0H13.814V5.11628H22V0.937811C22 0.419871 21.5801 0 21.0622 0Z" fill="var(--fill-0, #33C481)"/>
<path id="Vector_11" d="M13.814 10.2326H22V15.3488H13.814V10.2326Z" fill="var(--fill-0, #107C41)"/>
</g>
<defs>
<linearGradient id="paint0_linear_0_51" x1="1.95536" y1="3.87186" x2="9.30045" y2="16.5933" gradientUnits="userSpaceOnUse">
<stop stop-color="#18884F"/>
<stop offset="0.5" stop-color="#117E43"/>
<stop offset="1" stop-color="#0B6631"/>
</linearGradient>
<clipPath id="clip0_0_51">
<rect width="22" height="20.4651" fill="white"/>
</clipPath>
</defs>
</svg>
