<svg preserveAspectRatio="none" width="100%" height="100%" overflow="visible" style="display: block;" viewBox="0 0 30 30" fill="none" xmlns="http://www.w3.org/2000/svg">
<g id="google">
<path id="vector" fill-rule="evenodd" clip-rule="evenodd" d="M27.6005 15.2982C27.6005 14.3675 27.5169 13.4727 27.3618 12.6136H15.0005V17.6906H22.0641C21.7598 19.3312 20.8351 20.7212 19.4451 21.6519V24.9451H23.6868C26.1686 22.6602 27.6005 19.2954 27.6005 15.2982Z" fill="var(--fill-0, #4285F4)"/>
<path id="vector_2" fill-rule="evenodd" clip-rule="evenodd" d="M14.998 28.125C18.5417 28.125 21.5128 26.9497 23.6843 24.9451L19.4426 21.652C18.2673 22.4395 16.7639 22.9048 14.998 22.9048C11.5795 22.9048 8.68605 20.596 7.65395 17.4937H3.269V20.8943C5.42866 25.1838 9.8673 28.125 14.998 28.125Z" fill="var(--fill-0, #34A853)"/>
<path id="vector_3" fill-rule="evenodd" clip-rule="evenodd" d="M7.65597 17.4937C7.39347 16.7062 7.24432 15.865 7.24432 14.9999C7.24432 14.1349 7.39347 13.2937 7.65597 12.5062V9.10561H3.27102C2.3821 10.8775 1.875 12.882 1.875 14.9999C1.875 17.1178 2.3821 19.1224 3.27102 20.8942L7.65597 17.4937Z" fill="var(--fill-0, #FBBC05)"/>
<path id="vector_4" fill-rule="evenodd" clip-rule="evenodd" d="M14.998 7.09517C16.925 7.09517 18.6551 7.75739 20.0153 9.05795L23.7798 5.29347C21.5068 3.17557 18.5358 1.875 14.998 1.875C9.8673 1.875 5.42866 4.81619 3.269 9.10568L7.65395 12.5063C8.68605 9.40398 11.5795 7.09517 14.998 7.09517Z" fill="var(--fill-0, #EA4335)"/>
</g>
</svg>
