<svg preserveAspectRatio="none" width="100%" height="100%" overflow="visible" style="display: block;" viewBox="0 0 32 32" fill="none" xmlns="http://www.w3.org/2000/svg">
<g id="notion">
<path id="Vector" d="M6.3 1.39962H25.7C28.6 1.39962 31 3.79962 31 6.69962V25.2996C31 28.2496 28.6 30.5996 25.7 30.5996H6.3C3.4 30.6496 1 28.2496 1 25.3496V6.69962C1 3.79962 3.4 1.39962 6.3 1.39962Z" fill="var(--fill-0, #007EBB)"/>
<path id="Vector_2" fill-rule="evenodd" clip-rule="evenodd" d="M24.9999 24.9999H21.3015V18.7007C21.3015 16.9736 20.6453 16.0084 19.2783 16.0084C17.7912 16.0084 17.0142 17.0128 17.0142 18.7007V24.9999H13.4499V12.9999H17.0142V14.6163C17.0142 14.6163 18.0859 12.6333 20.6324 12.6333C23.1777 12.6333 24.9999 14.1876 24.9999 17.4023V24.9999ZM9.1978 11.4286C7.98373 11.4286 6.99995 10.4371 6.99995 9.21429C6.99995 7.99145 7.98373 6.99995 9.1978 6.99995C10.4119 6.99995 11.3951 7.99145 11.3951 9.21429C11.3951 10.4371 10.4119 11.4286 9.1978 11.4286ZM7.35737 24.9999H11.074V12.9999H7.35737V24.9999Z" fill="var(--fill-0, white)"/>
</g>
</svg>
