<svg preserveAspectRatio="none" width="100%" height="100%" overflow="visible" style="display: block;" viewBox="0 0 30 17.9297" fill="none" xmlns="http://www.w3.org/2000/svg">
<g id="Frame" clip-path="url(#clip0_0_35)">
<path id="Vector" d="M2.78426 0H27.2038C28.7491 0 30.0002 1.25098 30.0002 2.79645V12.1178C30.0002 13.6631 28.7493 14.9142 27.2038 14.9142H18.4467L19.6487 17.8577L14.3625 14.9142H2.79668C1.25133 14.9142 0.000234375 13.6632 0.000234375 12.1178V2.79645C-0.0120305 1.26328 1.23891 0 2.78426 0Z" fill="var(--fill-0, #7F54B3)"/>
<path id="Vector_2" d="M1.70836 2.54883C1.87909 2.31713 2.13519 2.19517 2.47665 2.17078C3.0986 2.122 3.45226 2.41468 3.53763 3.04883C3.91568 5.59766 4.33031 7.75614 4.76939 9.5245L7.44009 4.43914C7.684 3.97573 7.98887 3.73182 8.35473 3.70744C8.89132 3.67085 9.22058 4.01231 9.35473 4.73183C9.6596 6.35382 10.0498 7.73183 10.5133 8.90254C10.8303 5.80492 11.3669 3.57332 12.1231 2.19519C12.306 1.85373 12.5743 1.683 12.9279 1.6586C13.2084 1.63421 13.4645 1.71958 13.6962 1.9025C13.9279 2.08543 14.0499 2.31714 14.0743 2.59763C14.0865 2.81714 14.0499 3.00006 13.9523 3.18299C13.4767 4.06104 13.0865 5.5367 12.7694 7.58537C12.4646 9.57322 12.3548 11.122 12.428 12.2317C12.4524 12.5366 12.4036 12.8049 12.2816 13.0366C12.1353 13.3049 11.9158 13.4513 11.6353 13.4756C11.3182 13.5 10.989 13.3537 10.6719 13.0244C9.53775 11.8659 8.63529 10.1342 7.97681 7.82926C7.18413 9.3902 6.5988 10.561 6.22076 11.3415C5.50125 12.7195 4.8915 13.4268 4.37927 13.4634C4.05 13.4878 3.76951 13.2073 3.52561 12.6219C2.90366 11.0243 2.23291 7.93901 1.51338 3.36588C1.4646 3.04881 1.53777 2.76832 1.7085 2.5488L1.70836 2.54883ZM27.9162 4.46344C27.4772 3.69514 26.8308 3.23168 25.965 3.04875C25.7333 2.99997 25.5138 2.97558 25.3065 2.97558C24.1357 2.97558 23.1846 3.58534 22.4406 4.80488C21.8065 5.84146 21.4894 6.98784 21.4894 8.24386C21.4894 9.18288 21.6845 9.98773 22.0748 10.6585C22.5138 11.4268 23.1602 11.8903 24.026 12.0732C24.2577 12.122 24.4772 12.1464 24.6845 12.1464C25.8674 12.1464 26.8186 11.5366 27.5503 10.3171C28.1845 9.26829 28.5015 8.12191 28.5015 6.8659C28.5137 5.91468 28.3064 5.12203 27.9162 4.46344ZM26.3796 7.84148C26.2089 8.64636 25.904 9.24387 25.4528 9.64641C25.0991 9.96348 24.7699 10.0976 24.465 10.0367C24.1723 9.97568 23.9284 9.71958 23.7455 9.24397C23.5991 8.86593 23.526 8.48788 23.526 8.13422C23.526 7.82934 23.5503 7.52446 23.6113 7.24398C23.7211 6.74398 23.9284 6.25617 24.2577 5.79273C24.6601 5.19517 25.0869 4.95127 25.526 5.03664C25.8187 5.09761 26.0626 5.35371 26.2455 5.82932C26.3918 6.20736 26.465 6.58541 26.465 6.93907C26.465 7.25614 26.4406 7.561 26.3796 7.84148ZM20.282 4.46344C19.843 3.69514 19.1844 3.23168 18.3308 3.04875C18.0991 2.99997 17.8796 2.97558 17.6723 2.97558C16.5016 2.97558 15.5504 3.58534 14.8065 4.80488C14.1723 5.84146 13.8552 6.98784 13.8552 8.24386C13.8552 9.18288 14.0504 9.98773 14.4406 10.6585C14.8796 11.4268 15.526 11.8903 16.3918 12.0732C16.6235 12.122 16.843 12.1464 17.0503 12.1464C18.2332 12.1464 19.1844 11.5366 19.9161 10.3171C20.5503 9.26829 20.8674 8.12191 20.8674 6.8659C20.8674 5.91468 20.6722 5.12203 20.282 4.46344ZM18.7332 7.84148C18.5625 8.64636 18.2576 9.24387 17.8064 9.64641C17.4528 9.96348 17.1235 10.0976 16.8186 10.0367C16.5259 9.97568 16.282 9.71958 16.0991 9.24397C15.9528 8.86593 15.8796 8.48788 15.8796 8.13422C15.8796 7.82934 15.904 7.52446 15.965 7.24398C16.0747 6.74398 16.282 6.25617 16.6113 5.79273C17.0137 5.19517 17.4406 4.95127 17.8796 5.03664C18.1723 5.09761 18.4162 5.35371 18.5991 5.82932C18.7455 6.20736 18.8186 6.58541 18.8186 6.93907C18.8308 7.25614 18.7942 7.561 18.7332 7.84148Z" fill="var(--fill-0, white)"/>
</g>
<defs>
<clipPath id="clip0_0_35">
<rect width="30" height="17.9297" fill="white"/>
</clipPath>
</defs>
</svg>
