<svg preserveAspectRatio="none" width="100%" height="100%" overflow="visible" style="display: block;" viewBox="0 0 24 24" fill="none" xmlns="http://www.w3.org/2000/svg">
<g id="Frame 34">
<path id="Vector" d="M16.4607 15.5712C15.6938 16.2505 14.7212 17.0951 12.963 17.0951H11.8969C10.625 17.0951 9.46538 16.6361 8.64241 15.8282C7.83814 15.0203 7.38924 13.9187 7.38924 12.7252V11.3114C7.38924 10.118 7.83814 9.01631 8.64241 8.20843C9.46538 7.38219 10.625 6.94152 11.8969 6.94152H12.9443C14.7025 6.94152 15.6751 7.78612 16.442 8.46548C17.2462 9.1632 17.9383 9.76911 19.79 9.76911C20.0705 9.76911 20.3511 9.75075 20.6317 9.69566V9.6773C20.5194 9.40189 20.3885 9.14484 20.2389 8.88778L19.0044 6.77628C17.8635 4.84838 15.7686 3.65492 13.4867 3.65492H11.0365C8.75463 3.65492 6.65979 4.84838 5.51885 6.77628L4.28438 8.88778C3.14344 10.8157 3.14344 13.2026 4.28438 15.1305L5.51885 17.242C6.65979 19.1699 8.75463 20.3634 11.0365 20.3634H13.5054C15.7873 20.3634 17.8822 19.1699 19.0231 17.242L20.2576 15.1305C20.4072 14.8735 20.5381 14.6164 20.6504 14.341V14.3226C20.3698 14.2859 20.0892 14.2492 19.8087 14.2492C17.957 14.2675 17.2649 14.8734 16.4607 15.5712Z" fill="var(--fill-0, white)"/>
<path id="Vector_2" d="M12.963 8.20844H11.8969C9.9704 8.20844 8.69853 9.56715 8.69853 11.2931V12.7069C8.69853 14.4512 9.9704 15.7915 11.8969 15.7915H12.9443C15.7686 15.7915 15.5442 12.9639 19.8087 12.9639C20.2202 12.9639 20.613 13.0006 21.0057 13.0741C21.1367 12.358 21.1367 11.6236 21.0057 10.9075C20.613 10.9809 20.2015 11.0177 19.8087 11.0177C15.5442 11.036 15.7686 8.20844 12.963 8.20844Z" fill="var(--fill-0, #006BFF)"/>
<path id="Vector_3" d="M23.4559 14.1207C22.7265 13.6066 21.9035 13.2394 21.0057 13.0925V13.1108C20.9309 13.5331 20.8187 13.9371 20.6503 14.3227C21.3798 14.4328 22.0718 14.7082 22.6704 15.1489V15.1673C20.8935 20.8224 14.796 23.9805 9.03517 22.2362C3.27434 20.4919 0.05726 14.5063 1.83414 8.8511C3.61102 3.19593 9.70851 0.0378467 15.4693 1.78214C18.9109 2.82871 21.6042 5.47269 22.6704 8.8511V8.86946C22.0718 9.29176 21.3798 9.56717 20.6503 9.67734C20.8187 10.0629 20.9309 10.4852 21.0057 10.8892V10.9075C21.8848 10.7423 22.7265 10.3934 23.4559 9.87931C24.148 9.36521 24.0171 8.79601 23.9048 8.46552C21.9222 2.13099 15.0766 -1.41267 8.62368 0.533594C2.17081 2.47985 -1.43906 9.19995 0.543563 15.5345C2.52618 21.869 9.37184 25.4127 15.8247 23.4664C19.6777 22.2913 22.7078 19.3352 23.9048 15.5345C24.0171 15.204 24.1667 14.6348 23.4559 14.1207Z" fill="var(--fill-0, white)"/>
<path id="Vector_4" d="M20.6504 9.67731C20.3698 9.71404 20.0893 9.75076 19.8087 9.75076C17.957 9.75076 17.265 9.14484 16.4607 8.44713C15.6751 7.76777 14.7212 6.92317 12.963 6.92317H11.8969C10.625 6.92317 9.46539 7.3822 8.64242 8.19008C7.83815 8.99796 7.38925 10.0996 7.38925 11.2931V12.7069C7.38925 13.9003 7.83815 15.002 8.64242 15.8099C9.46539 16.6361 10.625 17.0768 11.8969 17.0768H12.9443C14.7025 17.0768 15.6751 16.2322 16.442 15.5528C17.2462 14.8551 17.9383 14.2492 19.79 14.2492C20.0705 14.2492 20.3511 14.2675 20.6317 14.3226C20.8 13.937 20.9122 13.5148 20.987 13.1108V13.0924C20.5943 13.019 20.1828 12.9823 19.79 12.9823C15.5255 12.9823 15.7499 15.8099 12.9256 15.8099H11.8969C9.9704 15.8099 8.69853 14.4512 8.69853 12.7069V11.2931C8.69853 9.54879 9.9704 8.20844 11.8969 8.20844H12.9443C15.7686 8.20844 15.5442 11.036 19.8087 11.036C20.2202 11.036 20.613 10.9993 21.0057 10.9259V10.9075C20.9309 10.4852 20.8187 10.0813 20.6504 9.67731Z" fill="var(--fill-0, #0AE8F0)"/>
<path id="Vector_5" d="M20.6504 9.67731C20.3698 9.71404 20.0893 9.75076 19.8087 9.75076C17.957 9.75076 17.265 9.14484 16.4607 8.44713C15.6751 7.76777 14.7212 6.92317 12.963 6.92317H11.8969C10.625 6.92317 9.46539 7.3822 8.64242 8.19008C7.83815 8.99796 7.38925 10.0996 7.38925 11.2931V12.7069C7.38925 13.9003 7.83815 15.002 8.64242 15.8099C9.46539 16.6361 10.625 17.0768 11.8969 17.0768H12.9443C14.7025 17.0768 15.6751 16.2322 16.442 15.5528C17.2462 14.8551 17.9383 14.2492 19.79 14.2492C20.0705 14.2492 20.3511 14.2675 20.6317 14.3226C20.8 13.937 20.9122 13.5148 20.987 13.1108V13.0924C20.5943 13.019 20.1828 12.9823 19.79 12.9823C15.5255 12.9823 15.7499 15.8099 12.9256 15.8099H11.8969C9.9704 15.8099 8.69853 14.4512 8.69853 12.7069V11.2931C8.69853 9.54879 9.9704 8.20844 11.8969 8.20844H12.9443C15.7686 8.20844 15.5442 11.036 19.8087 11.036C20.2202 11.036 20.613 10.9993 21.0057 10.9259V10.9075C20.9309 10.4852 20.8187 10.0813 20.6504 9.67731Z" fill="var(--fill-0, #0AE8F0)"/>
</g>
</svg>
