<svg preserveAspectRatio="none" width="100%" height="100%" overflow="visible" style="display: block;" viewBox="0 0 23.1028 24" fill="none" xmlns="http://www.w3.org/2000/svg">
<g id="Group">
<path id="Vector" d="M22.4551 3.53286C22.8733 3.92506 23.1028 4.46318 23.1028 5.04777V21.0194C23.1028 21.0259 23.1026 21.0323 23.1022 21.0387C23.1012 21.0593 23.0991 21.0797 23.0991 21.1003L23.101 21.1096C23.101 22.0734 22.3464 22.9089 21.3984 23.0251C21.3306 23.0362 21.2628 23.0446 21.1931 23.0493L5.56196 23.9953C5.5127 23.9981 5.46438 24 5.41605 24C5.41048 24 5.40514 23.9996 5.39979 23.999C5.39445 23.9986 5.3891 23.9981 5.38353 23.9981C5.37238 23.9981 5.36146 23.9986 5.35054 23.999C5.33962 23.9996 5.3287 24 5.31755 24C4.76089 24 4.23954 23.7956 3.83715 23.4173C3.4013 23.0074 3.15875 22.4451 3.15875 21.8355V21.0761C3.15875 20.9218 3.12901 20.8391 2.94965 20.8391C2.94965 20.8391 2.45804 20.8484 2.40693 20.8484C1.78614 20.8484 1.20532 20.6198 0.756465 20.1979C0.270431 19.7406 0.00278795 19.1141 0.00278795 18.4348L0 3.58118C0 2.20103 1.12076 1.00862 2.498 0.923114L17.3364 0.00487053C18.0139 -0.0369523 18.656 0.191679 19.1421 0.648011C19.6281 1.10435 19.8957 1.72983 19.8957 2.41014V2.87949C19.8957 2.87949 19.8864 3.03656 20.09 3.03005L20.9031 2.98079C21.4858 2.94362 22.0369 3.14065 22.4551 3.53286Z" fill="var(--fill-0, white)"/>
<path id="Vector_2" d="M2.50742 19.8699C2.09016 19.8653 1.71936 19.7585 1.43127 19.4899C1.43127 19.4899 1.43034 19.4899 1.42941 19.488C1.39596 19.4554 1.36436 19.422 1.33462 19.3885C1.10694 19.1283 0.983341 18.7947 0.983341 18.434L0.980554 3.58046C0.980554 2.72077 1.70542 1.94937 2.56318 1.89639L17.3997 0.978149C17.4323 0.976293 17.4638 0.975362 17.4963 0.975362C17.8672 0.975362 18.2129 1.1092 18.4768 1.35827C18.513 1.39266 18.5474 1.42798 18.579 1.46515C18.6342 1.52811 18.6832 1.59533 18.726 1.6663C18.6832 1.59583 18.634 1.52884 18.579 1.46608C18.8011 1.72445 18.9229 2.05346 18.9229 2.41035V2.79047C18.9229 2.79047 18.9321 3.10182 18.6236 3.12226L18.6255 3.12412L4.9794 3.97916C3.97853 4.04144 3.16538 4.90856 3.16538 5.91137C3.16538 5.91137 3.1598 19.6209 3.15887 19.6432C3.14865 19.8699 2.96186 19.8699 2.80759 19.8699H2.50742Z" fill="var(--fill-0, black)"/>
<path id="Vector_3" d="M22.1263 21.0865C22.1281 21.0642 22.13 21.0419 22.13 21.0196L22.1263 4.96801C22.1207 4.88344 22.1067 4.80072 22.0835 4.72172C22.0296 4.53677 21.9292 4.37041 21.787 4.23751C21.5835 4.04698 21.3177 3.94382 21.0324 3.94382C21.0074 3.94382 20.9822 3.94475 20.9572 3.94661L5.12161 4.9392C5.11604 4.9396 5.11046 4.94051 5.10489 4.94142C5.09745 4.94264 5.09002 4.94385 5.08258 4.94385C4.57889 4.9959 4.15698 5.43643 4.1226 5.94109C4.12074 5.9634 4.12074 5.98477 4.12074 6.00709V21.7343C4.12074 21.7418 4.12122 21.7492 4.12169 21.7564C4.12215 21.7634 4.1226 21.7702 4.1226 21.777C4.13282 22.1293 4.27315 22.4508 4.52313 22.686C4.74617 22.896 5.0324 23.015 5.34186 23.0308H5.39111L21.2183 22.0726C21.223 22.0726 21.2276 22.0719 21.2322 22.0712C21.2356 22.0707 21.2391 22.0702 21.2425 22.0699C21.2437 22.0699 21.2449 22.0698 21.2462 22.0698C21.7136 21.9834 22.0937 21.5633 22.1263 21.0865ZM6.60388 21.2928C6.06208 21.3309 5.58255 21.1469 5.59742 20.4369V9.38447C5.59742 9.00529 5.90967 8.76271 6.25442 8.74505L20.0306 7.91884C20.3745 7.90118 20.656 8.15026 20.656 8.49507V19.567C20.656 19.9722 20.5548 20.4936 19.8578 20.5205H19.8559L19.855 20.5214L6.60388 21.2928Z" fill="var(--fill-0, black)"/>
</g>
</svg>
