<svg preserveAspectRatio="none" width="100%" height="100%" overflow="visible" style="display: block;" viewBox="0 0 24 14.4597" fill="none" xmlns="http://www.w3.org/2000/svg">
<g id="Frame 37">
<path id="path841" d="M2.9855 14.3893C2.45496 14.3904 1.93362 14.2508 1.47475 13.9845C1.01587 13.7182 0.635899 13.3349 0.373657 12.8737C0.115428 12.4157 -0.0133576 11.8962 0.00109555 11.3706C0.0155487 10.8451 0.172696 10.3334 0.455704 9.89036L5.83437 1.44404C6.10965 0.990094 6.5005 0.617357 6.96698 0.363896C7.43346 0.110435 7.95886 -0.014667 8.48951 0.00136882C9.01975 0.0140756 9.5371 0.167433 9.98862 0.445748C10.4401 0.724064 10.8096 1.11734 11.0592 1.58534C11.5606 2.53344 11.4979 3.67413 10.8974 4.56411L5.52213 13.0104C5.24955 13.4352 4.87414 13.7843 4.43072 14.0253C3.98729 14.2663 3.4902 14.3915 2.9855 14.3893Z" fill="var(--fill-0, #F62B54)"/>
<path id="path843" d="M12.2114 14.3891C11.1265 14.3891 10.1283 13.809 9.6041 12.8769C9.34645 12.4202 9.21796 11.902 9.23242 11.3778C9.24687 10.8537 9.40372 10.3433 9.68615 9.90153L15.0546 1.47458C15.3258 1.01426 15.7152 0.634882 16.1825 0.375798C16.6498 0.116715 17.1779 -0.0126407 17.712 0.00114828C18.8059 0.0250788 19.7973 0.637015 20.2987 1.59423C20.7967 2.55145 20.7238 3.69898 20.105 4.58668L14.7378 13.0136C14.466 13.4366 14.0921 13.7843 13.6506 14.0247C13.2091 14.2651 12.7141 14.3904 12.2114 14.3891Z" fill="var(--fill-0, #FFCC00)"/>
<path id="ellipse845" d="M21.2309 14.4597C22.7602 14.4597 24 13.246 24 11.7488C24 10.2515 22.7602 9.03777 21.2309 9.03777C19.7016 9.03777 18.4618 10.2515 18.4618 11.7488C18.4618 13.246 19.7016 14.4597 21.2309 14.4597Z" fill="var(--fill-0, #00CA72)"/>
</g>
</svg>
