<svg preserveAspectRatio="none" width="100%" height="100%" overflow="visible" style="display: block;" viewBox="0 0 32 32" fill="none" xmlns="http://www.w3.org/2000/svg">
<g id="notion">
<rect id="Rectangle 2" width="32" height="32" rx="7" fill="var(--fill-0, #1E1E1E)"/>
<g id="Union">
<path fill-rule="evenodd" clip-rule="evenodd" d="M15.3722 15.0409L19.231 11.9111C19.3166 11.6288 19.5788 11.4233 19.8891 11.4233C20.2688 11.4233 20.5766 11.7312 20.5766 12.1108C20.5766 12.4212 20.371 12.6835 20.0886 12.769L16.9598 16.6264C16.9167 16.6922 16.867 16.7535 16.8117 16.809L16.8104 16.8105C16.603 17.018 16.3164 17.1461 15.9999 17.1461C15.3669 17.1461 14.8538 16.6329 14.8538 16C14.8538 15.6834 14.9819 15.3968 15.1893 15.1893M15.192 15.1871C15.2469 15.1326 15.3073 15.0836 15.3722 15.0409Z" fill="var(--fill-0, white)"/>
<path d="M15.9999 11.6461C16.6328 11.6461 17.1459 11.1329 17.1459 10.5C17.1459 9.86705 16.6328 9.35394 15.9999 9.35394C15.3669 9.35394 14.8538 9.86705 14.8538 10.5C14.8538 11.1329 15.3669 11.6461 15.9999 11.6461Z" fill="var(--fill-0, white)"/>
<path d="M22.6459 16C22.6459 16.6329 22.1328 17.1461 21.4999 17.1461C20.8669 17.1461 20.3538 16.6329 20.3538 16C20.3538 15.3671 20.8669 14.8539 21.4999 14.8539C22.1328 14.8539 22.6459 15.3671 22.6459 16Z" fill="var(--fill-0, white)"/>
<path d="M19.8891 21.0352C20.522 21.0352 21.0351 20.5221 21.0351 19.8892C21.0351 19.2562 20.522 18.7431 19.8891 18.7431C19.2561 18.7431 18.743 19.2562 18.743 19.8892C18.743 20.5221 19.2561 21.0352 19.8891 21.0352Z" fill="var(--fill-0, white)"/>
<path d="M12.1107 21.0352C12.7437 21.0352 13.2568 20.5221 13.2568 19.8892C13.2568 19.2562 12.7437 18.7431 12.1107 18.7431C11.4778 18.7431 10.9646 19.2562 10.9646 19.8892C10.9646 20.5221 11.4778 21.0352 12.1107 21.0352Z" fill="var(--fill-0, white)"/>
<path d="M17.1459 21.5C17.1459 22.1329 16.6328 22.6461 15.9999 22.6461C15.3669 22.6461 14.8538 22.1329 14.8538 21.5C14.8538 20.8671 15.3669 20.3539 15.9999 20.3539C16.6328 20.3539 17.1459 20.8671 17.1459 21.5Z" fill="var(--fill-0, white)"/>
<path d="M11.6459 16C11.6459 16.6329 11.1328 17.1461 10.4999 17.1461C9.86693 17.1461 9.35382 16.6329 9.35382 16C9.35382 15.3671 9.86693 14.8539 10.4999 14.8539C11.1328 14.8539 11.6459 15.3671 11.6459 16Z" fill="var(--fill-0, white)"/>
<path d="M12.1107 13.2569C12.7437 13.2569 13.2568 12.7438 13.2568 12.1108C13.2568 11.4779 12.7437 10.9648 12.1107 10.9648C11.4778 10.9648 10.9646 11.4779 10.9646 12.1108C10.9646 12.7438 11.4778 13.2569 12.1107 13.2569Z" fill="var(--fill-0, white)"/>
<path fill-rule="evenodd" clip-rule="evenodd" d="M15.9999 27C9.92446 27 4.99988 22.0754 4.99988 16C4.99988 9.92462 9.92446 5 15.9999 5C22.0753 5 26.9999 9.92462 26.9999 16C26.9999 22.0754 22.0753 27 15.9999 27ZM15.9999 25.2812C21.1259 25.2812 25.2811 21.126 25.2811 16C25.2811 10.874 21.1259 6.71875 15.9999 6.71875C10.8739 6.71875 6.71863 10.874 6.71863 16C6.71863 21.126 10.8739 25.2812 15.9999 25.2812Z" fill="var(--fill-0, white)"/>
</g>
</g>
</svg>
