<svg preserveAspectRatio="none" width="100%" height="100%" overflow="visible" style="display: block;" viewBox="0 0 32 32" fill="none" xmlns="http://www.w3.org/2000/svg">
<g id="notion">
<g id="Vector">
<path d="M4.68472 3.20795L20.1776 2.06361C22.0807 1.90038 22.5696 2.01041 23.7663 2.88035L28.7118 6.36432C29.5275 6.96351 29.7991 7.12674 29.7991 7.77913V26.8867C29.7991 28.0843 29.3642 28.7927 27.8419 28.9007L9.85061 29.9905C8.70823 30.0445 8.16421 29.8813 7.56586 29.1189L3.92398 24.383C3.27075 23.5114 3 22.859 3 22.0963V5.11191C3 4.13277 3.43483 3.31631 4.68472 3.20795Z" fill="white"/>
<path fill-rule="evenodd" clip-rule="evenodd" d="M20.1776 2.06389L4.68472 3.20795C3.43483 3.31631 3 4.13277 3 5.11191V22.0963C3 22.8588 3.27075 23.5111 3.92398 24.383L7.56586 29.1189C8.16421 29.8813 8.70823 30.0448 9.85061 29.9905L27.8422 28.901C29.3634 28.7927 29.7993 28.0843 29.7993 26.887V7.77941C29.7993 7.16062 29.5549 6.98226 28.8353 6.4542L23.7663 2.88035C22.5699 2.01041 22.0807 1.90038 20.1776 2.06361V2.06389ZM10.2574 7.46665C8.78831 7.56549 8.45512 7.58789 7.62074 6.90947L5.49951 5.22222C5.28391 5.00383 5.39227 4.73139 5.93546 4.67708L20.8292 3.58874C22.0799 3.47954 22.7312 3.91549 23.2203 4.29628L25.7747 6.14704C25.8839 6.2022 26.1555 6.52783 25.8287 6.52783L10.4478 7.45377L10.2574 7.46665ZM8.54472 26.7238V10.5029C8.54472 9.79452 8.76227 9.46777 9.41354 9.41289L27.0795 8.37859C27.6787 8.32456 27.9494 8.70535 27.9494 9.41261V25.5254C27.9494 26.2338 27.8402 26.833 26.8622 26.887L9.95701 27.867C8.97899 27.921 8.545 27.5954 8.545 26.7238H8.54472ZM25.2324 11.3726C25.3407 11.8626 25.2324 12.3525 24.7424 12.4085L23.9276 12.5701V24.5463C23.22 24.9271 22.5688 25.1446 22.0245 25.1446C21.1545 25.1446 20.9372 24.8722 20.2857 24.0563L14.9574 15.6733V23.7839L16.643 24.1655C16.643 24.1655 16.643 25.1455 15.2831 25.1455L11.5339 25.363C11.4247 25.1446 11.5339 24.6006 11.9139 24.4922L12.893 24.2206V13.4969L11.5342 13.3868C11.425 12.8969 11.6966 12.1893 12.4582 12.1344L16.4809 11.8637L22.0247 20.3551V12.8428L20.6116 12.6804C20.5024 12.0804 20.9372 11.6444 21.4804 11.5912L25.2324 11.3726Z" fill="var(--fill-0, black)"/>
</g>
</g>
</svg>
