<svg preserveAspectRatio="none" width="100%" height="100%" overflow="visible" style="display: block;" viewBox="0 0 32 32" fill="none" xmlns="http://www.w3.org/2000/svg">
<g id="notion">
<rect id="Rectangle 2" width="32" height="32" rx="7" fill="var(--fill-0, #2684FF)"/>
<g id="Vector">
<path d="M14.0757 22.1544C14.0745 22.4502 13.9555 22.7334 13.7451 22.9413C13.5347 23.1492 13.2501 23.2647 12.9543 23.2624H8.2891C7.67894 23.2599 7.18561 22.7645 7.18561 22.1544V8.27104C7.18561 7.66087 7.67894 7.16554 8.2891 7.16307H12.9543C13.5652 7.16553 14.0598 7.66015 14.0622 8.27104L14.0757 22.1544Z" fill="var(--fill-0, white)"/>
<path d="M24.8414 15.7801C24.8414 16.0763 24.7229 16.3602 24.5122 16.5684C24.3015 16.7766 24.0162 16.8917 23.72 16.8882H19.0548C18.4439 16.8857 17.9493 16.391 17.9469 15.7801V8.27104C17.9493 7.66015 18.4439 7.16553 19.0548 7.16307H23.72C24.3302 7.16554 24.8235 7.66087 24.8235 8.27104L24.8414 15.7801Z" fill="var(--fill-0, white)"/>
</g>
</g>
</svg>
