<svg preserveAspectRatio="none" width="100%" height="100%" overflow="visible" style="display: block;" viewBox="0 0 19.4104 22" fill="none" xmlns="http://www.w3.org/2000/svg">
<g id="Frame 38">
<path id="path69" d="M17.0036 4.2418C16.9906 4.12471 16.8865 4.07268 16.8085 4.05967C16.7304 4.04666 15.1693 4.03365 15.1693 4.03365C15.1693 4.03365 13.8553 2.7587 13.7252 2.6286C13.5951 2.49851 13.3479 2.53754 13.2438 2.56355C13.2438 2.56355 12.9967 2.64161 12.5803 2.77171C12.5153 2.55055 12.4112 2.27734 12.2681 2.00414C11.7998 1.10647 11.1233 0.638124 10.2906 0.638124C10.2386 0.638124 10.1736 0.638124 10.1215 0.651133C10.0955 0.625114 10.0695 0.599095 10.0435 0.560066C9.67919 0.169776 9.22385 -0.0123597 8.67745 0.000650002C7.61066 0.0266693 6.55687 0.79424 5.68523 2.17326C5.07377 3.13598 4.61843 4.34588 4.48834 5.28258C3.26543 5.65986 2.40679 5.92005 2.39378 5.93306C1.78232 6.1282 1.75631 6.14121 1.67825 6.72665C1.6132 7.15597 0 19.6583 0 19.6583L13.5431 22L19.4104 20.5429C19.4104 20.5429 17.0166 4.34588 17.0036 4.2418ZM11.9038 2.97986C11.5916 3.07093 11.2404 3.18802 10.8501 3.30511C10.8371 2.77171 10.772 2.01715 10.5248 1.36667C11.3444 1.52278 11.7347 2.43346 11.9038 2.97986ZM10.1475 3.52627C9.43201 3.74743 8.66444 3.98161 7.88386 4.22879C8.10502 3.39617 8.52133 2.56355 9.02871 2.01715C9.22386 1.80899 9.48405 1.58783 9.79628 1.45773C10.0955 2.06919 10.1475 2.94084 10.1475 3.52627ZM8.69046 0.716182C8.93764 0.716182 9.1458 0.76822 9.32793 0.885307C9.04172 1.02841 8.75551 1.24958 8.49531 1.53579C7.81881 2.26433 7.29842 3.38316 7.09027 4.47598C6.43979 4.67112 5.81532 4.86627 5.22989 5.0484C5.62018 3.33113 7.05124 0.76822 8.69046 0.716182Z" fill="var(--fill-0, #95BF47)"/>
<path id="path71" d="M16.8085 4.05966C16.7304 4.04665 15.1693 4.03364 15.1693 4.03364C15.1693 4.03364 13.8553 2.75869 13.7252 2.6286C13.6732 2.57656 13.6081 2.55054 13.5431 2.55054V22L19.4104 20.5429C19.4104 20.5429 17.0166 4.35888 17.0036 4.2418C16.9776 4.12471 16.8865 4.07267 16.8085 4.05966Z" fill="var(--fill-0, #5E8E3E)"/>
<path id="path73" d="M10.2906 7.07791L9.61415 9.62781C9.61415 9.62781 8.85958 9.27654 7.94891 9.34159C6.62192 9.41965 6.60891 10.2523 6.62192 10.4734C6.69998 11.6183 9.6922 11.8655 9.86133 14.5325C9.99143 16.64 8.7425 18.0711 6.94716 18.1882C4.78756 18.3183 3.60368 17.0563 3.60368 17.0563L4.05902 15.1179C4.05902 15.1179 5.25591 16.0156 6.20561 15.9635C6.83008 15.9245 7.05124 15.4171 7.02522 15.0528C6.93415 13.5697 4.48834 13.6478 4.33222 11.215C4.20212 9.15946 5.55513 7.07791 8.53434 6.88276C9.70521 6.77869 10.2906 7.07791 10.2906 7.07791Z" fill="var(--fill-0, white)"/>
</g>
</svg>
