<svg preserveAspectRatio="none" width="100%" height="100%" overflow="visible" style="display: block;" viewBox="0 0 22 22" fill="none" xmlns="http://www.w3.org/2000/svg">
<g id="Frame 40">
<path id="Vector" d="M11 0C4.92455 0 0 4.92392 0 11C0 17.076 4.92455 22 11 22C17.0755 22 22 17.076 22 11C22 4.92392 17.076 0 11 0Z" fill="var(--fill-0, #291436)"/>
<path id="Vector_2" d="M11 16.9583C7.89102 16.9583 5.04167 14.3877 5.04167 11.2775C5.04167 8.68182 6.875 6.41667 9.16667 5.95833V7.5625C7.64938 8.15718 6.64583 9.55148 6.64583 11.2775C6.64583 13.5295 8.70833 15.3542 11 15.3542C13.2917 15.3542 15.3542 13.5295 15.3542 11.2775C15.3542 9.55084 14.3488 8.15718 12.8333 7.5625V5.95833C15.125 6.41667 16.9583 8.68182 16.9583 11.2768C16.959 14.3871 14.1103 16.9583 11 16.9583ZM10.0833 3.66667H11.9167V11.9167H10.0833V3.66667ZM11 0C4.92455 0 0 4.92392 0 11C0 17.076 4.92455 22 11 22C17.0755 22 22 17.076 22 11C22 4.92392 17.076 0 11 0Z" fill="var(--fill-0, #D781D3)"/>
</g>
</svg>
