<svg preserveAspectRatio="none" width="100%" height="100%" overflow="visible" style="display: block;" viewBox="0 0 32 32" fill="none" xmlns="http://www.w3.org/2000/svg">
<g id="notion">
<rect id="Rectangle 2" width="32" height="32" rx="7" fill="var(--fill-0, #F0F0F0)"/>
<path id="Vector" d="M13.053 11.442H9.7V25H13.053V11.442Z" fill="var(--fill-0, black)"/>
<path id="Vector_2" d="M18.61 17.43C21.357 17.292 23.567 14.984 23.567 12.218C23.5649 10.8341 23.0139 9.50746 22.0349 8.52924C21.056 7.55102 19.7289 7.00106 18.345 7H9.7V9.895H17.934C19.237 9.895 20.317 10.919 20.34 12.178C20.3469 12.4873 20.2916 12.7949 20.1774 13.0825C20.0632 13.3701 19.8923 13.6317 19.675 13.852C19.459 14.0737 19.2007 14.2497 18.9154 14.3696C18.63 14.4895 18.3235 14.5509 18.014 14.55H14.806C14.7514 14.5503 14.6992 14.5721 14.6606 14.6106C14.6221 14.6492 14.6003 14.7014 14.6 14.756V17.329C14.6 17.373 14.613 17.415 14.639 17.45L20.08 25H24.063L18.61 17.43Z" fill="var(--fill-0, black)"/>
</g>
</svg>
