<svg preserveAspectRatio="none" width="100%" height="100%" overflow="visible" style="display: block;" viewBox="0 0 11.6026 9.68124" fill="none" xmlns="http://www.w3.org/2000/svg">
<g id="Group">
<path id="Vector" d="M2.3345 2.33287C1.69497 2.37241 1.47757 2.86048 1.47847 3.61059V3.74248C1.40215 3.76043 1.33834 3.77747 1.26107 3.78196C0.8003 3.81067 0.467944 3.43654 0.467047 2.76538C0.46615 1.73893 1.38594 0.772539 3.13839 0.663978C4.69867 0.567081 5.69748 1.32078 5.69927 2.65054C5.70017 3.65097 4.86931 4.36071 4.05101 4.58321C5.58611 4.65863 6.22654 5.51461 6.22834 6.60656C6.23013 8.47558 4.86303 9.53523 2.75215 9.66718L2.70095 9.67071C1.11465 9.76945 0.000897196 9.16738 0 8.12742C0 7.53527 0.433795 7.03368 1.08594 6.9933C1.13714 6.98972 1.18834 7.00048 1.23953 6.99689C1.3689 8.05564 2.0857 8.44508 2.80155 8.40112C3.49234 8.35805 3.97822 7.89325 3.97733 7.23465V7.20863C3.97643 6.18129 3.11865 6.13015 1.82697 6.07901L1.62129 4.85422C2.82314 4.63441 3.42404 4.24138 3.42314 3.53074C3.42314 2.76717 2.99922 2.2934 2.3345 2.33467V2.33287Z" fill="var(--fill-0, black)"/>
<path id="Vector_2" d="M8.10308 1.82865C6.82396 2.1983 6.54196 1.6366 6.68203 1.04804C7.44914 0.868542 9.44411 0.270112 10.1987 0L10.2076 7.88608L11.6026 8.08884C11.6026 8.60209 11.3098 8.92329 10.7852 8.95649C10.3504 8.9834 9.33992 9.02024 8.85398 9.05075C8.09949 9.0974 6.71798 9.21045 6.71798 9.21045C6.67934 9.10727 6.66678 9.00314 6.66678 8.91073C6.66678 8.66041 6.76828 8.40381 7.10063 8.29161L8.11116 7.96503L8.10398 1.82955L8.10308 1.82865Z" fill="var(--fill-0, black)"/>
</g>
</svg>
