<svg preserveAspectRatio="none" width="100%" height="100%" overflow="visible" style="display: block;" viewBox="0 0 32 32" fill="none" xmlns="http://www.w3.org/2000/svg">
<g id="notion">
<g id="Vector">
<path d="M3.44828 2.29423L20.0478 1.06816C22.0869 0.89326 22.6107 1.01116 23.8928 1.94324L29.1916 5.67606C30.0655 6.31804 30.3565 6.49294 30.3565 7.19192V27.6644C30.3565 28.9474 29.8906 29.7064 28.2595 29.8222L8.98315 30.9898C7.75918 31.0477 7.17629 30.8728 6.53521 30.0559L2.63319 24.9818C1.93331 24.048 1.64322 23.349 1.64322 22.5318V4.33418C1.64322 3.28511 2.1091 2.41033 3.44828 2.29423Z" fill="white"/>
<path fill-rule="evenodd" clip-rule="evenodd" d="M20.0478 1.06846L3.44828 2.29423C2.1091 2.41033 1.64322 3.28511 1.64322 4.33418V22.5318C1.64322 23.3487 1.93331 24.0477 2.63319 24.9818L6.53521 30.0559C7.17629 30.8728 7.75918 31.048 8.98315 30.9898L28.2598 29.8225C29.8897 29.7064 30.3568 28.9474 30.3568 27.6647V7.19222C30.3568 6.52924 30.0949 6.33814 29.3239 5.77235L23.8928 1.94324C22.611 1.01116 22.0869 0.89326 20.0478 1.06816V1.06846ZM9.41904 6.85713C7.84498 6.96303 7.48799 6.98703 6.59401 6.26014L4.32126 4.45238C4.09026 4.21839 4.20636 3.92649 4.78835 3.8683L20.7459 2.70222C22.086 2.58522 22.7838 3.05231 23.3078 3.4603L26.0447 5.44326C26.1617 5.50236 26.4527 5.85125 26.1026 5.85125L9.62304 6.84333L9.41904 6.85713ZM7.58398 27.4898V10.1103C7.58398 9.35127 7.81708 9.00118 8.51486 8.94238L27.4426 7.83421C28.0846 7.77631 28.3747 8.1843 28.3747 8.94208V26.2058C28.3747 26.9648 28.2577 27.6068 27.2099 27.6647L9.09715 28.7147C8.04927 28.7725 7.58429 28.4237 7.58429 27.4898H7.58398ZM25.4636 11.042C25.5797 11.567 25.4636 12.092 24.9386 12.152L24.0656 12.3251V25.1567C23.3075 25.5647 22.6098 25.7978 22.0266 25.7978C21.0945 25.7978 20.8617 25.5059 20.1636 24.6317L14.4547 15.6499V24.3398L16.2607 24.7487C16.2607 24.7487 16.2607 25.7987 14.8036 25.7987L10.7867 26.0318C10.6697 25.7978 10.7867 25.2149 11.1938 25.0988L12.2429 24.8078V13.3181L10.787 13.2002C10.67 12.6752 10.961 11.9171 11.777 11.8583L16.087 11.5682L22.0269 20.6661V12.6173L20.5128 12.4433C20.3958 11.8004 20.8617 11.3333 21.4437 11.2763L25.4636 11.042Z" fill="var(--fill-0, black)"/>
</g>
</g>
</svg>
