<svg preserveAspectRatio="none" width="100%" height="100%" overflow="visible" style="display: block;" viewBox="0 0 32 32" fill="none" xmlns="http://www.w3.org/2000/svg">
<g id="notion">
<rect id="Rectangle 2" width="32" height="32" rx="7" fill="var(--fill-0, #1E1E1E)"/>
<path id="Vector" d="M10.3393 13.2221C11.7401 14.6292 13.6029 15.427 15.5379 15.5721C15.4079 13.6283 14.5993 11.757 13.1985 10.35C11.7978 8.94288 9.99276 8.14506 7.99998 8C8.12995 9.94379 8.93861 11.8151 10.3393 13.2221ZM21.6606 13.2221C20.2599 14.6292 18.3971 15.427 16.4621 15.5721C16.592 13.6283 17.4007 11.757 18.8014 10.35C20.1299 8.94288 22.0072 8.14506 24 8C23.8556 9.94379 23.0614 11.8151 21.6606 13.2221ZM21.6606 18.7779C20.2599 17.3708 18.3971 16.573 16.4621 16.4279C16.592 18.3717 17.4007 20.243 18.8014 21.65C20.2021 23.0571 22.065 23.8549 24 24C23.8556 21.9982 23.0614 20.1124 21.6606 18.7779ZM10.3393 18.7779C11.7401 17.3708 13.6029 16.573 15.6101 16.4279C15.4801 18.3717 14.6715 20.243 13.2707 21.65C11.7978 23.0571 9.99276 23.8694 7.99998 24C8.12995 21.9982 8.93861 20.1124 10.3393 18.7779Z" fill="var(--fill-0, white)"/>
</g>
</svg>
