<svg preserveAspectRatio="none" width="100%" height="100%" overflow="visible" style="display: block;" viewBox="0 0 22 21.1394" fill="none" xmlns="http://www.w3.org/2000/svg">
<g id="Frame 39">
<path id="Vector" d="M0.797699 16.1378C0.570165 16.5089 0.314626 16.9394 0.0975928 17.2825C0.00420995 17.4403 -0.0235349 17.6284 0.0203214 17.8065C0.0641777 17.9845 0.176134 18.1382 0.332128 18.2346L4.88282 21.035C4.9619 21.0839 5.0499 21.1165 5.14171 21.1309C5.23351 21.1454 5.32728 21.1414 5.41753 21.1193C5.50779 21.0971 5.59273 21.0572 5.6674 21.0019C5.74208 20.9465 5.80499 20.8769 5.85247 20.797C6.0345 20.4925 6.26903 20.0969 6.52457 19.6733C8.32734 16.6979 10.1406 17.0619 13.4101 18.6232L17.9223 20.769C18.0069 20.8093 18.0987 20.8321 18.1923 20.8363C18.2859 20.8404 18.3793 20.8257 18.4671 20.7931C18.5549 20.7604 18.6353 20.7105 18.7035 20.6462C18.7716 20.582 18.8262 20.5047 18.8639 20.419L21.0308 15.5182C21.1044 15.35 21.1089 15.1596 21.0434 14.988C20.9779 14.8165 20.8477 14.6775 20.6807 14.6011C19.7286 14.153 17.8348 13.2604 16.13 12.4377C9.9971 9.45879 4.78481 9.65132 0.797699 16.1378Z" fill="url(#paint0_linear_0_63)"/>
<path id="Vector_2" d="M21.2023 5.01667C21.4298 4.64562 21.6854 4.21505 21.9024 3.872C21.9958 3.71419 22.0235 3.52605 21.9797 3.34801C21.9358 3.16996 21.8239 3.01623 21.6679 2.91985L17.1172 0.119429C17.0375 0.0657699 16.9477 0.0290785 16.8532 0.0116376C16.7587 -0.00580326 16.6617 -0.00362048 16.5681 0.0180501C16.4745 0.0397207 16.3864 0.0804155 16.3093 0.137603C16.2321 0.19479 16.1675 0.267246 16.1195 0.350464C15.9375 0.65501 15.703 1.05057 15.4474 1.47413C13.6447 4.44959 11.8314 4.08553 8.56188 2.52429L4.0637 0.38897C3.97911 0.34871 3.8873 0.325834 3.79372 0.321698C3.70013 0.317563 3.60666 0.332251 3.51886 0.364893C3.43105 0.397535 3.35069 0.447467 3.28253 0.511732C3.21437 0.575996 3.1598 0.653286 3.12205 0.739023L0.955222 5.63977C0.881639 5.808 0.877098 5.99842 0.942576 6.16997C1.00805 6.34152 1.13831 6.48048 1.30528 6.55691C2.25742 7.00498 4.15121 7.89761 5.85597 8.72024C12.0029 11.6957 17.2152 11.4962 21.2023 5.01667Z" fill="url(#paint1_linear_0_63)"/>
</g>
<defs>
<linearGradient id="paint0_linear_0_63" x1="20.9083" y1="22.4808" x2="7.14066" y2="14.5696" gradientUnits="userSpaceOnUse">
<stop offset="0.18" stop-color="#0052CC"/>
<stop offset="1" stop-color="#2684FF"/>
</linearGradient>
<linearGradient id="paint1_linear_0_63" x1="1.09174" y1="-1.32979" x2="14.8628" y2="6.58491" gradientUnits="userSpaceOnUse">
<stop offset="0.18" stop-color="#0052CC"/>
<stop offset="1" stop-color="#2684FF"/>
</linearGradient>
</defs>
</svg>
