<svg width="32" height="32" viewBox="0 0 32 32" fill="none" xmlns="http://www.w3.org/2000/svg">
<g id="book">
<path id="Part" opacity="0.32" d="M16 4.34428C13.9082 3.07216 12.0728 2.39145 10.0616 2.03883C7.82505 1.64671 5.53881 1.64558 3.26664 1.65936C2.70321 1.66278 2.42149 1.66448 2.2089 1.77394C2.02114 1.87062 1.87037 2.02231 1.77483 2.21065C1.66667 2.4239 1.66667 2.70482 1.66667 3.26667V17.3429C1.66667 18.9751 1.66667 19.7913 1.97785 20.4202C2.25883 20.988 2.67564 21.4214 3.23204 21.7244C3.84826 22.0599 4.72091 22.0941 6.46621 22.1624C7.55693 22.205 8.64314 22.2968 9.7162 22.485C12.0281 22.8903 14.046 23.9327 16 25.1888L16 4.34428Z" fill="var(--fill-0, #00D4E2)"/>
<g id="Vector">
<path d="M28 25.2504C28.4142 25.2504 28.75 25.5862 28.75 26.0004C28.7498 26.4144 28.4141 26.7504 28 26.7504C25.3596 26.7504 23.4364 26.9167 21.6973 27.3911C19.9662 27.8632 18.3736 28.6524 16.416 29.9575C16.1642 30.1252 15.8358 30.1252 15.584 29.9575C13.6264 28.6524 12.0338 27.8632 10.3027 27.3911C8.56361 26.9167 6.64043 26.7504 4 26.7504C3.58593 26.7504 3.25023 26.4144 3.25 26.0004C3.25 25.5862 3.58579 25.2504 4 25.2504C6.6929 25.2504 8.76972 25.4181 10.6973 25.9438C12.5003 26.4355 14.1337 27.2317 16 28.4389C17.8663 27.2317 19.4997 26.4355 21.3027 25.9438C23.2303 25.4181 25.3071 25.2504 28 25.2504Z" fill="var(--fill-0, #00D4E2)"/>
<path d="M28.7334 1.65961C29.2967 1.66302 29.5784 1.66449 29.791 1.77386C29.9787 1.8705 30.1301 2.02213 30.2256 2.21039C30.3338 2.42364 30.333 2.70518 30.333 3.26703V17.3432C30.333 18.9753 30.3336 19.7915 30.0225 20.4203C29.7415 20.9882 29.324 21.4221 28.7676 21.725C28.1514 22.0603 27.2788 22.0943 25.5342 22.1625C24.4436 22.2052 23.3571 22.2967 22.2842 22.4848C19.9723 22.8901 17.954 23.9328 16 25.1889V4.34418C18.0917 3.07211 19.9273 2.3921 21.9385 2.03949C24.175 1.64737 26.4612 1.64582 28.7334 1.65961Z" fill="var(--fill-0, #00D4E2)"/>
</g>
</g>
</svg>
