<svg preserveAspectRatio="none" width="100%" height="100%" overflow="visible" style="display: block;" viewBox="0 0 15.6667 15.1151" fill="none" xmlns="http://www.w3.org/2000/svg">
<g id="Vector">
<path d="M15.6667 5.86428C15.6667 3.38167 15.6667 2.14037 15.1798 1.57708C14.7575 1.08853 14.1254 0.833911 13.4824 0.89341C12.741 0.962012 11.8807 1.85679 10.16 3.64636L9.89331 3.9237C9.56336 4.26686 9.39838 4.43843 9.28053 4.63682C9.17603 4.81273 9.09914 5.00363 9.05255 5.20286C9 5.42755 9 5.66557 9 6.14162V9.85846C9 10.3345 9 10.5725 9.05255 10.7972C9.09914 10.9965 9.17603 11.1874 9.28054 11.3633C9.3984 11.5617 9.56338 11.7332 9.89333 12.0764L10.16 12.3537C11.8807 14.1433 12.741 15.038 13.4824 15.1066C14.1254 15.1661 14.7576 14.9115 15.1798 14.4229C15.6667 13.8597 15.6667 12.6184 15.6667 10.1358L15.6667 5.86428Z" fill="var(--fill-0, #5A3FFF)"/>
<path d="M2 4C3.10457 4 4 3.10457 4 2C4 0.89543 3.10457 3.49246e-08 2 3.49246e-08C0.89543 3.49246e-08 0 0.89543 0 2C0 3.10457 0.89543 4 2 4Z" fill="var(--fill-0, #5A3FFF)"/>
</g>
</svg>
