<svg width="32" height="32" viewBox="0 0 32 32" fill="none" xmlns="http://www.w3.org/2000/svg">
<g id="heart">
<path id="Part" opacity="0.32" d="M1.66667 12.0006C1.66667 6.72868 6.16904 3.00085 10.6667 3.00085C12.5005 3.00085 14.48 3.52903 15.9979 5.08006C17.5045 3.52627 19.4642 2.9737 21.3478 3.00096C25.8212 3.06568 30.3333 6.71702 30.3333 12.0006C30.3333 20.0258 22.6407 25.7978 16 29.118C9.35933 25.7978 1.66667 20.0259 1.66667 12.0006Z" fill="var(--fill-0, #FE459E)"/>
<path id="Vector" d="M16 29.118C12.8134 27.5248 9.38465 25.367 6.67984 22.6667C6.67984 22.6667 7.99999 14.6667 15.9979 14.6667C23.9958 14.6667 25.3202 22.6667 25.3202 22.6667C22.6154 25.367 19.1866 27.5248 16 29.118Z" fill="var(--fill-0, #FE459E)"/>
</g>
</svg>
