<svg width="32" height="32" viewBox="0 0 32 32" fill="none" xmlns="http://www.w3.org/2000/svg">
<g id="cart">
<path id="Part" opacity="0.32" d="M1.99994 0.583008C2.85312 0.583027 3.4258 0.576952 3.93451 0.71582C4.92545 0.986516 5.76225 1.65204 6.24896 2.55664C6.49875 3.02111 6.62157 3.58076 6.81342 4.41211L6.85248 4.58301H26.3652C27.0798 4.58301 27.6664 4.58237 28.1328 4.62402C28.6034 4.6661 29.0454 4.75741 29.4355 5.00098C30.0212 5.36708 30.4483 5.94129 30.6308 6.60742C30.7521 7.05104 30.7121 7.50089 30.6171 7.96387C30.523 8.42248 30.3537 8.98363 30.1484 9.66797L28.4111 15.4609C28.0619 16.6249 27.8388 17.4144 27.3613 18.0107C26.9593 18.5126 26.435 18.9027 25.8388 19.1436C25.1304 19.4296 24.3098 19.416 23.0947 19.416H7.99994C6.94166 19.4162 6.08314 20.2747 6.08295 21.333C6.08295 22.3914 6.94154 23.2498 7.99994 23.25H27.9999C28.4139 23.2502 28.7497 23.5861 28.7499 24C28.7498 24.414 28.4139 24.7498 27.9999 24.75H7.99994C6.11312 24.7498 4.58295 23.2199 4.58295 21.333C4.58314 19.4463 6.11324 17.9162 7.99994 17.916H8.72064C8.71057 17.9026 8.69927 17.8895 8.68939 17.876C8.44136 17.5357 8.2819 17.1588 8.1474 16.7236C8.01571 16.2975 7.89388 15.7676 7.7431 15.1143L5.3515 4.75C5.13902 3.82926 5.05889 3.51159 4.92767 3.26758C4.63563 2.72481 4.13358 2.32452 3.539 2.16211C3.27185 2.08929 2.94412 2.08303 1.99994 2.08301H1.33295C0.918925 2.08283 0.582997 1.74708 0.582947 1.33301C0.583184 0.919148 0.919061 0.583234 1.33295 0.583008H1.99994Z" fill="var(--fill-0, #FE6645)"/>
<g id="Vector">
<path d="M11.9999 23C9.97489 23 8.33327 24.6416 8.33327 26.6667C8.33327 28.6917 9.97489 30.3333 11.9999 30.3333C14.025 30.3333 15.6666 28.6917 15.6666 26.6667C15.6666 24.6416 14.025 23 11.9999 23Z" fill="var(--fill-0, #FE6645)"/>
<path d="M22.6666 23C20.6416 23 18.9999 24.6416 18.9999 26.6667C18.9999 28.6917 20.6416 30.3333 22.6666 30.3333C24.6917 30.3333 26.3333 28.6917 26.3333 26.6667C26.3333 24.6416 24.6917 23 22.6666 23Z" fill="var(--fill-0, #FE6645)"/>
</g>
</g>
</svg>
