<svg preserveAspectRatio="none" width="100%" height="100%" overflow="visible" style="display: block;" viewBox="0 0 24.6667 26" fill="none" xmlns="http://www.w3.org/2000/svg">
<path id="Part" opacity="0.32" d="M15.0667 0H9.6C6.23969 0 4.55953 0 3.27606 0.653961C2.14708 1.2292 1.2292 2.14708 0.653961 3.27606C0 4.55953 0 6.23969 0 9.6V16.4C0 19.7603 0 21.4405 0.653961 22.7239C1.2292 23.8529 2.14708 24.7708 3.27606 25.346C4.55953 26 6.23968 26 9.59999 26H15.0667C18.427 26 20.1071 26 21.3906 25.346C22.5196 24.7708 23.4375 23.8529 24.0127 22.7239C24.6667 21.4405 24.6667 19.7603 24.6667 16.4V9.6C24.6667 6.23969 24.6667 4.55953 24.0127 3.27606C23.4375 2.14708 22.5196 1.2292 21.3906 0.653961C20.1071 0 18.427 0 15.0667 0Z" fill="var(--fill-0, #5A3FFF)"/>
</svg>
