<svg preserveAspectRatio="none" width="100%" height="100%" overflow="visible" style="display: block;" viewBox="0 0 27.0833 28.4274" fill="none" xmlns="http://www.w3.org/2000/svg">
<path id="Vector" fill-rule="evenodd" clip-rule="evenodd" d="M12.75 2.68885C14.8418 1.41674 16.6772 0.736026 18.6884 0.383408C20.925 -0.00871117 23.2112 -0.00984924 25.4834 0.00393318C26.0468 0.00735084 26.3285 0.00905967 26.5411 0.11852C26.7289 0.215191 26.8796 0.366886 26.9752 0.555223C27.0833 0.768474 27.0833 1.0494 27.0833 1.61124V15.6874C27.0833 17.3197 27.0833 18.1359 26.7721 18.7647C26.4912 19.3326 26.0744 19.766 25.518 20.069C24.9017 20.4045 24.0291 20.4386 22.2838 20.5069C21.1931 20.5496 20.1069 20.6414 19.0338 20.8295C16.7219 21.2349 14.704 22.2772 12.75 23.5334V2.68885ZM25.5 24.3444C25.5 23.9302 25.1642 23.5944 24.75 23.5944C22.0571 23.5944 19.9803 23.7621 18.0527 24.2878C16.2496 24.7795 14.6164 25.5756 12.75 26.7829C10.8836 25.5756 9.25035 24.7795 7.44727 24.2878C5.51972 23.7621 3.4429 23.5944 0.75 23.5944C0.335786 23.5944 0 23.9302 0 24.3444C0 24.7586 0.335786 25.0944 0.75 25.0944C3.39043 25.0944 5.31361 25.2607 7.05273 25.735C8.78385 26.2072 10.3764 26.9964 12.334 28.3014C12.5859 28.4694 12.9141 28.4694 13.166 28.3014C15.1236 26.9964 16.7161 26.2072 18.4473 25.735C20.1864 25.2607 22.1096 25.0944 24.75 25.0944C25.1642 25.0944 25.5 24.7586 25.5 24.3444Z" fill="var(--fill-0, #00D4E2)"/>
</svg>
