<svg preserveAspectRatio="none" width="100%" height="100%" overflow="visible" style="display: block;" viewBox="0 0 14.3333 23.5334" fill="none" xmlns="http://www.w3.org/2000/svg">
<path id="Part" opacity="0.32" d="M14.3333 2.68885C12.2415 1.41674 10.4061 0.736026 8.39491 0.383408C6.15838 -0.00871013 3.87215 -0.00984907 1.59998 0.00393298C1.03654 0.00735055 0.754822 0.00905933 0.54223 0.11852C0.354477 0.215191 0.2037 0.366886 0.108169 0.555222C0 0.768474 0 1.0494 0 1.61124V15.6874C0 17.3197 0 18.1359 0.311186 18.7647C0.592165 19.3326 1.00897 19.766 1.56538 20.069C2.1816 20.4045 3.05425 20.4386 4.79954 20.5069C5.89026 20.5496 6.97648 20.6414 8.04953 20.8295C10.3615 21.2349 12.3793 22.2772 14.3333 23.5334L14.3333 2.68885Z" fill="var(--fill-0, #00D4E2)"/>
</svg>
