<svg preserveAspectRatio="none" width="100%" height="100%" overflow="visible" style="display: block;" viewBox="0 0 30.1234 24.167" fill="none" xmlns="http://www.w3.org/2000/svg">
<path id="Part" opacity="0.32" fill-rule="evenodd" clip-rule="evenodd" d="M7.41699 17.333C5.53002 17.333 4 18.8631 4 20.75C4 22.637 5.53002 24.167 7.41699 24.167H27.417C27.8309 24.1669 28.1668 23.831 28.167 23.417C28.167 23.0029 27.8311 22.6672 27.417 22.667H7.41699C6.35845 22.667 5.5 21.8086 5.5 20.75C5.5 19.6915 6.35845 18.833 7.41699 18.833H22.5117C22.5653 18.833 22.6181 18.8331 22.6702 18.8331C23.7991 18.8337 24.5787 18.8341 25.2559 18.5606C25.852 18.3197 26.3764 17.9296 26.7783 17.4278C27.2354 16.857 27.4593 16.1094 27.7838 15.0258C27.7984 14.9772 27.8131 14.9279 27.8281 14.878L29.5654 9.085L29.579 9.0397C29.7782 8.37574 29.9421 7.8294 30.0342 7.3809C30.1292 6.91782 30.1692 6.46816 30.0479 6.02445C29.8654 5.35814 29.4383 4.78419 28.8525 4.41801C28.4624 4.17426 28.0207 4.08314 27.5498 4.04105C27.0907 4.00002 26.5153 4.00003 25.8157 4.00004H25.7822H6.26953L6.23047 3.82914C6.22252 3.79468 6.21468 3.76069 6.20695 3.72715C6.02818 2.95137 5.90549 2.41896 5.66602 1.97367C5.17933 1.06885 4.34266 0.403587 3.35156 0.13285C2.86387 -0.000361721 2.3178 -0.000207145 1.52181 1.81734e-05C1.48735 2.79299e-05 1.45241 3.78191e-05 1.41699 3.70189e-05H0.75C0.335844 8.7575e-05 4.28909e-05 0.335903 0 0.750037C5.05594e-05 1.16422 0.335829 1.50004 0.75 1.50004H1.41699C2.36163 1.50006 2.68884 1.50622 2.95605 1.57914C3.55079 1.74159 4.05272 2.14162 4.34473 2.68461C4.47596 2.92866 4.556 3.24597 4.76855 4.16703L4.94238 4.91898L7.16016 14.5313L7.16637 14.5582C7.31434 15.1994 7.43453 15.7203 7.56445 16.1407C7.699 16.576 7.85825 16.9526 8.10645 17.293C8.11187 17.3004 8.11763 17.3076 8.12339 17.3148C8.12823 17.3208 8.13306 17.3269 8.1377 17.333H7.41699Z" fill="var(--fill-0, #FE6645)"/>
</svg>
