<svg width="32" height="32" viewBox="0 0 32 32" fill="none" xmlns="http://www.w3.org/2000/svg">
<g id="cam">
<path id="Part" opacity="0.32" d="M15.3999 2.99999L9.93325 2.99999C6.57294 2.99999 4.89278 3 3.60931 3.65396C2.48033 4.2292 1.56245 5.14708 0.987212 6.27605C0.333251 7.55952 0.333251 9.23968 0.333252 12.6L0.333253 19.4C0.333254 22.7603 0.333254 24.4405 0.987215 25.7239C1.56246 26.8529 2.48034 27.7708 3.60931 28.346C4.89278 29 6.57294 29 9.93325 29L15.3999 29C18.7602 29 20.4404 29 21.7239 28.346C22.8528 27.7708 23.7707 26.8529 24.346 25.7239C24.9999 24.4405 24.9999 22.7603 24.9999 19.4L24.9999 12.6C24.9999 9.23968 24.9999 7.55952 24.346 6.27605C23.7707 5.14708 22.8528 4.22919 21.7239 3.65395C20.4404 2.99999 18.7602 2.99999 15.3999 2.99999Z" fill="var(--fill-0, #5A3FFF)"/>
<g id="Vector">
<path d="M31.6666 13.8643C31.6666 11.3817 31.6666 10.1404 31.1797 9.57715C30.7575 9.08859 30.1253 8.83398 29.4823 8.89348C28.7409 8.96208 27.8806 9.85686 26.1599 11.6464L25.8932 11.9238C25.5633 12.2669 25.3983 12.4385 25.2804 12.6369C25.1759 12.8128 25.0991 13.0037 25.0525 13.2029C24.9999 13.4276 24.9999 13.6656 24.9999 14.1417L24.9999 17.8585C24.9999 18.3346 24.9999 18.5726 25.0525 18.7973C25.0991 18.9965 25.1759 19.1874 25.2805 19.3634C25.3983 19.5617 25.5633 19.7333 25.8932 20.0765L26.1599 20.3538C27.8806 22.1433 28.741 23.0381 29.4823 23.1067C30.1253 23.1662 30.7575 22.9116 31.1797 22.423C31.6666 21.8597 31.6666 20.6184 31.6666 18.1359L31.6666 13.8643Z" fill="var(--fill-0, #5A3FFF)"/>
<path d="M17.9999 12.0001C19.1045 12.0001 19.9999 11.1046 19.9999 10.0001C19.9999 8.8955 19.1045 8.00007 17.9999 8.00007C16.8953 8.00007 15.9999 8.8955 15.9999 10.0001C15.9999 11.1046 16.8953 12.0001 17.9999 12.0001Z" fill="var(--fill-0, #5A3FFF)"/>
</g>
</g>
</svg>
