<svg preserveAspectRatio="none" width="100%" height="100%" overflow="visible" style="display: block;" viewBox="0 0 32 32" fill="none" xmlns="http://www.w3.org/2000/svg">
<g id="rocket">
<path id="Part" opacity="0.32" d="M16.371 4.96221L8.66659 12.6667C7.21259 14.1207 6.48559 14.8477 6.09696 15.6319C5.35754 17.1241 5.35754 18.8759 6.09696 20.3681C6.48559 21.1523 7.21259 21.8793 8.66659 23.3333C10.1206 24.7873 10.8476 25.5143 11.6318 25.903C13.124 26.6424 14.8759 26.6424 16.368 25.903C17.1523 25.5143 17.8793 24.7873 19.3332 23.3333L27.0637 15.6029C27.9035 14.7631 28.3234 14.3432 28.635 13.8565C28.9114 13.4249 29.1241 12.9557 29.2666 12.4633C29.4272 11.9082 29.4663 11.3157 29.5445 10.1306L29.5445 10.1306L29.6037 9.233C29.7686 6.73325 29.851 5.48338 29.4058 4.54406C29.0149 3.71927 28.3536 3.05299 27.5317 2.65584C26.5958 2.20354 25.3453 2.27658 22.8444 2.42265L21.9075 2.47737C20.7086 2.54739 20.1092 2.58241 19.5474 2.7418C19.0491 2.88317 18.5741 3.09636 18.1373 3.37467C17.6448 3.68846 17.2202 4.11304 16.371 4.96221Z" fill="var(--fill-0, black)"/>
<path id="Vector" fill-rule="evenodd" clip-rule="evenodd" d="M2.61085 12.2053C1.87067 11.71 1.50058 11.4624 1.34284 11.1368C1.20448 10.8512 1.17253 10.5256 1.25273 10.2185C1.34415 9.86848 1.65904 9.5536 2.28882 8.92384L2.96049 8.25218C4.09507 7.11764 4.66235 6.55037 5.32064 6.18634C6.11214 5.74865 7.00194 5.51943 7.90639 5.52024C8.65864 5.52092 9.42939 5.7435 10.9709 6.18867C11.4704 6.33292 11.7202 6.40505 11.8465 6.54214C11.9978 6.70639 12.0568 6.93549 12.0037 7.1524C11.9593 7.33344 11.7755 7.51726 11.4079 7.8849L5.91219 13.3806C5.69158 13.6012 5.58127 13.7115 5.45136 13.7623C5.3368 13.8071 5.21208 13.8194 5.09099 13.7977C4.95368 13.7731 4.82403 13.6863 4.56473 13.5128L2.61085 12.2053ZM19.1538 26.7281C18.9803 26.4688 18.8935 26.3391 18.8689 26.2018C18.8472 26.0807 18.8594 25.956 18.9043 25.8414C18.9551 25.7115 19.0654 25.6012 19.286 25.3805L24.7818 19.8848C25.1494 19.5171 25.3333 19.3333 25.5143 19.289C25.7312 19.2359 25.9602 19.2948 26.1244 19.4461C26.2616 19.5723 26.3337 19.8221 26.4781 20.3216L26.4781 20.3216C26.9237 21.8637 27.1464 22.6347 27.1472 23.3872C27.148 24.2916 26.9189 25.1813 26.4813 25.9728C26.1172 26.6314 25.5497 27.1989 24.4147 28.3339L24.4147 28.3339L23.7436 29.0049L23.7436 29.005C23.1139 29.6347 22.799 29.9495 22.449 30.0409C22.142 30.1211 21.8164 30.0892 21.5308 29.9509C21.2052 29.7932 20.9575 29.4231 20.4622 28.683L19.1538 26.7281ZM22.6698 11.9994C22.6698 13.4721 21.4759 14.666 20.0032 14.666C18.5304 14.666 17.3365 13.4721 17.3365 11.9994C17.3365 10.5266 18.5304 9.33271 20.0032 9.33271C21.4759 9.33271 22.6698 10.5266 22.6698 11.9994ZM12.7067 19.293C12.3162 18.9025 11.6831 18.9025 11.2926 19.293L7.95964 22.626C7.56913 23.0165 7.56918 23.6495 7.95964 24.04C8.35016 24.4306 8.98318 24.4306 9.3737 24.04L12.7067 20.707C13.0972 20.3165 13.0972 19.6835 12.7067 19.293Z" fill="var(--fill-0, black)"/>
</g>
</svg>
