<svg preserveAspectRatio="none" width="100%" height="100%" overflow="visible" style="display: block;" viewBox="0 0 19.5019 23.2613" fill="none" xmlns="http://www.w3.org/2000/svg">
<g id="Group">
<path id="Vector" d="M19.4529 8.81973C19.0803 11.7252 15.4157 11.6631 13.6896 11.3244C9.9001 10.5877 7.42288 8.48101 3.3806 6.29195C-1.43807 3.68762 -2.12346 13.6268 8.15088 17.1592C9.63505 17.6503 11.1922 17.8699 12.755 17.8165C16.1943 17.7088 19.9773 14.5773 19.4529 8.81973Z" fill="url(#paint0_linear_0_53)"/>
<path id="Vector_2" d="M12.3578 18.6658C9.18005 18.6875 7.73055 18.5921 6.70643 19.4025C5.95027 19.9997 5.23093 21.0347 5.23093 23.2613C8.1256 23.2613 10.8737 21.749 12.3571 18.668L12.3578 18.6658Z" fill="url(#paint1_linear_0_53)"/>
<path id="Vector_3" d="M19.2103 7.49373C18.4823 4.54851 16.5749 2.16373 15.1897 1.08979C13.9821 0.150174 12.4705 -0.52077 11.632 0.542341C10.9603 1.39167 11.2492 3.33012 11.923 4.86701C12.5095 6.20456 13.2801 8.24412 13.5842 10.3768C15.0719 10.6758 18.9308 10.8961 19.2103 7.49373Z" fill="url(#paint2_linear_0_53)"/>
<path id="Vector_4" d="M19.4529 8.81973C19.0832 11.7252 15.4186 11.6631 13.6918 11.3273C13.7033 11.5223 13.7257 15.475 12.7608 17.8165C16.1943 17.7088 19.9773 14.5773 19.4529 8.81973Z" fill="var(--fill-0, #667DFF)"/>
</g>
<defs>
<linearGradient id="paint0_linear_0_53" x1="4.9081" y1="8.72404" x2="13.2368" y2="12.806" gradientUnits="userSpaceOnUse">
<stop stop-color="#965CFF"/>
<stop offset="1" stop-color="#7D82FF"/>
</linearGradient>
<linearGradient id="paint1_linear_0_53" x1="-4429.51" y1="-15853.4" x2="-4278.7" y2="-16036.6" gradientUnits="userSpaceOnUse">
<stop stop-color="#965CFF"/>
<stop offset="1" stop-color="#7D82FF"/>
</linearGradient>
<linearGradient id="paint2_linear_0_53" x1="16.6623" y1="11.844" x2="13.8976" y2="-1.3943" gradientUnits="userSpaceOnUse">
<stop stop-color="#85DEFF"/>
<stop offset="1" stop-color="#3095FF"/>
</linearGradient>
</defs>
</svg>
